<svg width="717" height="2164" viewBox="0 0 717 2164" fill="none" xmlns="http://www.w3.org/2000/svg">
<path d="M636.08 989C609.294 959.529 572.58 915.5 572.58 915.5L488.08 920.5C488.08 920.5 511.839 946.896 533.08 960.5C577.58 989 593.268 1001.15 621.58 1037C645.417 1067.19 669.58 1123 669.58 1123C669.58 1123 671.691 1174.31 662.08 1205C652.489 1235.62 640.228 1250.38 621.58 1276.5C594.86 1313.92 573.943 1330.44 539.58 1361C501.759 1394.63 457.747 1390.11 421.08 1425C375.347 1468.51 346.54 1503.75 336.08 1566C329.752 1603.67 336.656 1626.71 348.58 1663C356.76 1687.89 364.427 1700.84 377.58 1723.5C390.687 1746.08 400.187 1757.41 415.58 1778.5C438.938 1810.49 467.874 1819.86 478.58 1858C486.074 1884.7 498.801 1922.25 509.08 1948C533.052 1972.65 554.214 1981.17 588.58 1980C583.469 1951.78 576.439 1918.85 569.58 1891C553.985 1827.68 522.58 1808 499.58 1778.5C477.565 1750.26 470.295 1738.07 456.58 1705C446.312 1680.24 439.069 1658.14 436.08 1631.5C431.736 1592.77 433.979 1573.55 446.08 1536.5C458.635 1498.06 478.201 1473.32 499.58 1439C517.545 1410.16 561.768 1385.24 585.58 1361C629.511 1316.29 681.639 1259.73 696.08 1233C719.58 1189.5 721.206 1143.7 707.58 1095C692.44 1040.89 667.08 1023.11 636.08 989Z" fill="url(#paint0_linear_187_142)"/>
<path d="M368.58 989C364.914 974 357.08 934.2 357.08 925C357.08 925 335.625 977.971 336.08 1009C336.616 1045.45 349.723 1059 368.58 1081C404.58 1094.5 419.142 1096.12 451.08 1104.5C481.58 1112.5 503.58 1137 508.58 1176C511.589 1199.46 497.977 1238.01 488.08 1259.5C461.491 1317.22 387.58 1361 387.58 1361C387.58 1361 334.745 1458.09 325.08 1526.5C323.515 1537.58 323.252 1543.87 322.08 1555C352.346 1493.3 358.308 1451.95 399.58 1397C438.911 1344.63 486.338 1337.55 522.58 1283C537.517 1260.52 555.08 1222 555.08 1222C555.08 1222 569.48 1177.39 563.58 1149.5C556.031 1113.81 537.861 1095.76 508.58 1074C481.303 1053.73 444.329 1066.12 415.58 1048C389.167 1031.35 372.247 1004 368.58 989Z" fill="#78A898"/>
<path d="M368.58 989C364.914 974 357.08 934.2 357.08 925C357.08 925 335.625 977.971 336.08 1009C336.616 1045.45 349.723 1059 368.58 1081C404.58 1094.5 419.142 1096.12 451.08 1104.5C481.58 1112.5 503.58 1137 508.58 1176C511.589 1199.46 497.977 1238.01 488.08 1259.5C461.491 1317.22 387.58 1361 387.58 1361C387.58 1361 334.745 1458.09 325.08 1526.5C323.515 1537.58 323.252 1543.87 322.08 1555C352.346 1493.3 358.308 1451.95 399.58 1397C438.911 1344.63 486.338 1337.55 522.58 1283C537.517 1260.52 555.08 1222 555.08 1222C555.08 1222 569.48 1177.39 563.58 1149.5C556.031 1113.81 537.861 1095.76 508.58 1074C481.303 1053.73 444.329 1066.12 415.58 1048C389.167 1031.35 372.247 1004 368.58 989Z" fill="#3B8381"/>
<path d="M368.58 989C364.914 974 357.08 934.2 357.08 925C357.08 925 335.625 977.971 336.08 1009C336.616 1045.45 349.723 1059 368.58 1081C404.58 1094.5 419.142 1096.12 451.08 1104.5C481.58 1112.5 503.58 1137 508.58 1176C511.589 1199.46 497.977 1238.01 488.08 1259.5C461.491 1317.22 387.58 1361 387.58 1361C387.58 1361 334.745 1458.09 325.08 1526.5C323.515 1537.58 323.252 1543.87 322.08 1555C352.346 1493.3 358.308 1451.95 399.58 1397C438.911 1344.63 486.338 1337.55 522.58 1283C537.517 1260.52 555.08 1222 555.08 1222C555.08 1222 569.48 1177.39 563.58 1149.5C556.031 1113.81 537.861 1095.76 508.58 1074C481.303 1053.73 444.329 1066.12 415.58 1048C389.167 1031.35 372.247 1004 368.58 989Z" fill="#235760"/>
<path d="M368.58 989C364.914 974 357.08 934.2 357.08 925C357.08 925 335.625 977.971 336.08 1009C336.616 1045.45 349.723 1059 368.58 1081C404.58 1094.5 419.142 1096.12 451.08 1104.5C481.58 1112.5 503.58 1137 508.58 1176C511.589 1199.46 497.977 1238.01 488.08 1259.5C461.491 1317.22 387.58 1361 387.58 1361C387.58 1361 334.745 1458.09 325.08 1526.5C323.515 1537.58 323.252 1543.87 322.08 1555C352.346 1493.3 358.308 1451.95 399.58 1397C438.911 1344.63 486.338 1337.55 522.58 1283C537.517 1260.52 555.08 1222 555.08 1222C555.08 1222 569.48 1177.39 563.58 1149.5C556.031 1113.81 537.861 1095.76 508.58 1074C481.303 1053.73 444.329 1066.12 415.58 1048C389.167 1031.35 372.247 1004 368.58 989Z" fill="#6D988E"/>
<path d="M368.58 989C364.914 974 357.08 934.2 357.08 925C357.08 925 335.625 977.971 336.08 1009C336.616 1045.45 349.723 1059 368.58 1081C404.58 1094.5 419.142 1096.12 451.08 1104.5C481.58 1112.5 503.58 1137 508.58 1176C511.589 1199.46 497.977 1238.01 488.08 1259.5C461.491 1317.22 387.58 1361 387.58 1361C387.58 1361 334.745 1458.09 325.08 1526.5C323.515 1537.58 323.252 1543.87 322.08 1555C352.346 1493.3 358.308 1451.95 399.58 1397C438.911 1344.63 486.338 1337.55 522.58 1283C537.517 1260.52 555.08 1222 555.08 1222C555.08 1222 569.48 1177.39 563.58 1149.5C556.031 1113.81 537.861 1095.76 508.58 1074C481.303 1053.73 444.329 1066.12 415.58 1048C389.167 1031.35 372.247 1004 368.58 989Z" fill="#FFE5B4"/>
<path d="M368.58 989C364.914 974 357.08 934.2 357.08 925C357.08 925 335.625 977.971 336.08 1009C336.616 1045.45 349.723 1059 368.58 1081C404.58 1094.5 419.142 1096.12 451.08 1104.5C481.58 1112.5 503.58 1137 508.58 1176C511.589 1199.46 497.977 1238.01 488.08 1259.5C461.491 1317.22 387.58 1361 387.58 1361C387.58 1361 334.745 1458.09 325.08 1526.5C323.515 1537.58 323.252 1543.87 322.08 1555C352.346 1493.3 358.308 1451.95 399.58 1397C438.911 1344.63 486.338 1337.55 522.58 1283C537.517 1260.52 555.08 1222 555.08 1222C555.08 1222 569.48 1177.39 563.58 1149.5C556.031 1113.81 537.861 1095.76 508.58 1074C481.303 1053.73 444.329 1066.12 415.58 1048C389.167 1031.35 372.247 1004 368.58 989Z" fill="#FFE5B4"/>
<path d="M368.58 989C364.914 974 357.08 934.2 357.08 925C357.08 925 335.625 977.971 336.08 1009C336.616 1045.45 349.723 1059 368.58 1081C404.58 1094.5 419.142 1096.12 451.08 1104.5C481.58 1112.5 503.58 1137 508.58 1176C511.589 1199.46 497.977 1238.01 488.08 1259.5C461.491 1317.22 387.58 1361 387.58 1361C387.58 1361 334.745 1458.09 325.08 1526.5C323.515 1537.58 323.252 1543.87 322.08 1555C352.346 1493.3 358.308 1451.95 399.58 1397C438.911 1344.63 486.338 1337.55 522.58 1283C537.517 1260.52 555.08 1222 555.08 1222C555.08 1222 569.48 1177.39 563.58 1149.5C556.031 1113.81 537.861 1095.76 508.58 1074C481.303 1053.73 444.329 1066.12 415.58 1048C389.167 1031.35 372.247 1004 368.58 989Z" fill="#203139"/>
<path d="M368.58 989C364.914 974 357.08 934.2 357.08 925C357.08 925 335.625 977.971 336.08 1009C336.616 1045.45 349.723 1059 368.58 1081C404.58 1094.5 419.142 1096.12 451.08 1104.5C481.58 1112.5 503.58 1137 508.58 1176C511.589 1199.46 497.977 1238.01 488.08 1259.5C461.491 1317.22 387.58 1361 387.58 1361C387.58 1361 334.745 1458.09 325.08 1526.5C323.515 1537.58 323.252 1543.87 322.08 1555C352.346 1493.3 358.308 1451.95 399.58 1397C438.911 1344.63 486.338 1337.55 522.58 1283C537.517 1260.52 555.08 1222 555.08 1222C555.08 1222 569.48 1177.39 563.58 1149.5C556.031 1113.81 537.861 1095.76 508.58 1074C481.303 1053.73 444.329 1066.12 415.58 1048C389.167 1031.35 372.247 1004 368.58 989Z" fill="url(#paint1_linear_187_142)"/>
<path d="M451.08 1104.5C419.142 1096.12 404.58 1094.5 368.58 1081C404.58 1123 440.932 1152.75 451.08 1205C463.62 1269.57 387.58 1361 387.58 1361C387.58 1361 461.491 1317.22 488.08 1259.5C497.977 1238.01 511.589 1199.46 508.58 1176C503.58 1137 481.58 1112.5 451.08 1104.5Z" fill="#78A898"/>
<path d="M451.08 1104.5C419.142 1096.12 404.58 1094.5 368.58 1081C404.58 1123 440.932 1152.75 451.08 1205C463.62 1269.57 387.58 1361 387.58 1361C387.58 1361 461.491 1317.22 488.08 1259.5C497.977 1238.01 511.589 1199.46 508.58 1176C503.58 1137 481.58 1112.5 451.08 1104.5Z" fill="#3B8381"/>
<path d="M451.08 1104.5C419.142 1096.12 404.58 1094.5 368.58 1081C404.58 1123 440.932 1152.75 451.08 1205C463.62 1269.57 387.58 1361 387.58 1361C387.58 1361 461.491 1317.22 488.08 1259.5C497.977 1238.01 511.589 1199.46 508.58 1176C503.58 1137 481.58 1112.5 451.08 1104.5Z" fill="#235760"/>
<path d="M451.08 1104.5C419.142 1096.12 404.58 1094.5 368.58 1081C404.58 1123 440.932 1152.75 451.08 1205C463.62 1269.57 387.58 1361 387.58 1361C387.58 1361 461.491 1317.22 488.08 1259.5C497.977 1238.01 511.589 1199.46 508.58 1176C503.58 1137 481.58 1112.5 451.08 1104.5Z" fill="#6D988E"/>
<path d="M451.08 1104.5C419.142 1096.12 404.58 1094.5 368.58 1081C404.58 1123 440.932 1152.75 451.08 1205C463.62 1269.57 387.58 1361 387.58 1361C387.58 1361 461.491 1317.22 488.08 1259.5C497.977 1238.01 511.589 1199.46 508.58 1176C503.58 1137 481.58 1112.5 451.08 1104.5Z" fill="#FFE5B4"/>
<path d="M451.08 1104.5C419.142 1096.12 404.58 1094.5 368.58 1081C404.58 1123 440.932 1152.75 451.08 1205C463.62 1269.57 387.58 1361 387.58 1361C387.58 1361 461.491 1317.22 488.08 1259.5C497.977 1238.01 511.589 1199.46 508.58 1176C503.58 1137 481.58 1112.5 451.08 1104.5Z" fill="#FFE5B4"/>
<path d="M451.08 1104.5C419.142 1096.12 404.58 1094.5 368.58 1081C404.58 1123 440.932 1152.75 451.08 1205C463.62 1269.57 387.58 1361 387.58 1361C387.58 1361 461.491 1317.22 488.08 1259.5C497.977 1238.01 511.589 1199.46 508.58 1176C503.58 1137 481.58 1112.5 451.08 1104.5Z" fill="#203139"/>
<path d="M451.08 1104.5C419.142 1096.12 404.58 1094.5 368.58 1081C404.58 1123 440.932 1152.75 451.08 1205C463.62 1269.57 387.58 1361 387.58 1361C387.58 1361 461.491 1317.22 488.08 1259.5C497.977 1238.01 511.589 1199.46 508.58 1176C503.58 1137 481.58 1112.5 451.08 1104.5Z" fill="url(#paint2_linear_187_142)"/>
<path d="M406.08 1924.5C406.08 1924.5 472.566 1940.58 509.08 1948C498.801 1922.25 486.074 1884.7 478.58 1858C467.874 1819.86 438.938 1810.49 415.58 1778.5C400.187 1757.41 390.687 1746.08 377.58 1723.5C364.427 1700.84 356.76 1687.89 348.58 1663C336.656 1626.71 329.752 1603.67 336.08 1566C346.54 1503.75 375.347 1468.51 421.08 1425C457.747 1390.11 501.759 1394.63 539.58 1361C573.943 1330.44 594.86 1313.92 621.58 1276.5C640.228 1250.38 652.489 1235.62 662.08 1205C671.691 1174.31 669.58 1123 669.58 1123C669.58 1123 645.417 1067.19 621.58 1037C593.268 1001.15 577.58 989 533.08 960.5C511.839 946.896 488.08 920.5 488.08 920.5L357.08 925C357.08 925 437.58 950 478.58 971C514.367 989.33 563.58 1059 563.58 1059C563.58 1059 593.822 1100.43 600.08 1131.5C607.986 1170.75 600.961 1196.03 585.58 1233C571.97 1265.71 556.404 1280.33 533.08 1307C490.987 1355.14 446.273 1360.01 404.58 1408.5C361.773 1458.29 354.299 1497.79 322.08 1555C322.212 1597.53 325.364 1621.84 336.08 1663C347.008 1704.97 358.27 1727.17 377.58 1766C390.975 1792.93 407.069 1804.15 415.58 1833C426.189 1868.96 406.08 1924.5 406.08 1924.5Z" fill="#78A898"/>
<path d="M406.08 1924.5C406.08 1924.5 472.566 1940.58 509.08 1948C498.801 1922.25 486.074 1884.7 478.58 1858C467.874 1819.86 438.938 1810.49 415.58 1778.5C400.187 1757.41 390.687 1746.08 377.58 1723.5C364.427 1700.84 356.76 1687.89 348.58 1663C336.656 1626.71 329.752 1603.67 336.08 1566C346.54 1503.75 375.347 1468.51 421.08 1425C457.747 1390.11 501.759 1394.63 539.58 1361C573.943 1330.44 594.86 1313.92 621.58 1276.5C640.228 1250.38 652.489 1235.62 662.08 1205C671.691 1174.31 669.58 1123 669.58 1123C669.58 1123 645.417 1067.19 621.58 1037C593.268 1001.15 577.58 989 533.08 960.5C511.839 946.896 488.08 920.5 488.08 920.5L357.08 925C357.08 925 437.58 950 478.58 971C514.367 989.33 563.58 1059 563.58 1059C563.58 1059 593.822 1100.43 600.08 1131.5C607.986 1170.75 600.961 1196.03 585.58 1233C571.97 1265.71 556.404 1280.33 533.08 1307C490.987 1355.14 446.273 1360.01 404.58 1408.5C361.773 1458.29 354.299 1497.79 322.08 1555C322.212 1597.53 325.364 1621.84 336.08 1663C347.008 1704.97 358.27 1727.17 377.58 1766C390.975 1792.93 407.069 1804.15 415.58 1833C426.189 1868.96 406.08 1924.5 406.08 1924.5Z" fill="#3B8381"/>
<path d="M406.08 1924.5C406.08 1924.5 472.566 1940.58 509.08 1948C498.801 1922.25 486.074 1884.7 478.58 1858C467.874 1819.86 438.938 1810.49 415.58 1778.5C400.187 1757.41 390.687 1746.08 377.58 1723.5C364.427 1700.84 356.76 1687.89 348.58 1663C336.656 1626.71 329.752 1603.67 336.08 1566C346.54 1503.75 375.347 1468.51 421.08 1425C457.747 1390.11 501.759 1394.63 539.58 1361C573.943 1330.44 594.86 1313.92 621.58 1276.5C640.228 1250.38 652.489 1235.62 662.08 1205C671.691 1174.31 669.58 1123 669.58 1123C669.58 1123 645.417 1067.19 621.58 1037C593.268 1001.15 577.58 989 533.08 960.5C511.839 946.896 488.08 920.5 488.08 920.5L357.08 925C357.08 925 437.58 950 478.58 971C514.367 989.33 563.58 1059 563.58 1059C563.58 1059 593.822 1100.43 600.08 1131.5C607.986 1170.75 600.961 1196.03 585.58 1233C571.97 1265.71 556.404 1280.33 533.08 1307C490.987 1355.14 446.273 1360.01 404.58 1408.5C361.773 1458.29 354.299 1497.79 322.08 1555C322.212 1597.53 325.364 1621.84 336.08 1663C347.008 1704.97 358.27 1727.17 377.58 1766C390.975 1792.93 407.069 1804.15 415.58 1833C426.189 1868.96 406.08 1924.5 406.08 1924.5Z" fill="#235760"/>
<path d="M406.08 1924.5C406.08 1924.5 472.566 1940.58 509.08 1948C498.801 1922.25 486.074 1884.7 478.58 1858C467.874 1819.86 438.938 1810.49 415.58 1778.5C400.187 1757.41 390.687 1746.08 377.58 1723.5C364.427 1700.84 356.76 1687.89 348.58 1663C336.656 1626.71 329.752 1603.67 336.08 1566C346.54 1503.75 375.347 1468.51 421.08 1425C457.747 1390.11 501.759 1394.63 539.58 1361C573.943 1330.44 594.86 1313.92 621.58 1276.5C640.228 1250.38 652.489 1235.62 662.08 1205C671.691 1174.31 669.58 1123 669.58 1123C669.58 1123 645.417 1067.19 621.58 1037C593.268 1001.15 577.58 989 533.08 960.5C511.839 946.896 488.08 920.5 488.08 920.5L357.08 925C357.08 925 437.58 950 478.58 971C514.367 989.33 563.58 1059 563.58 1059C563.58 1059 593.822 1100.43 600.08 1131.5C607.986 1170.75 600.961 1196.03 585.58 1233C571.97 1265.71 556.404 1280.33 533.08 1307C490.987 1355.14 446.273 1360.01 404.58 1408.5C361.773 1458.29 354.299 1497.79 322.08 1555C322.212 1597.53 325.364 1621.84 336.08 1663C347.008 1704.97 358.27 1727.17 377.58 1766C390.975 1792.93 407.069 1804.15 415.58 1833C426.189 1868.96 406.08 1924.5 406.08 1924.5Z" fill="#6D988E"/>
<path d="M406.08 1924.5C406.08 1924.5 472.566 1940.58 509.08 1948C498.801 1922.25 486.074 1884.7 478.58 1858C467.874 1819.86 438.938 1810.49 415.58 1778.5C400.187 1757.41 390.687 1746.08 377.58 1723.5C364.427 1700.84 356.76 1687.89 348.58 1663C336.656 1626.71 329.752 1603.67 336.08 1566C346.54 1503.75 375.347 1468.51 421.08 1425C457.747 1390.11 501.759 1394.63 539.58 1361C573.943 1330.44 594.86 1313.92 621.58 1276.5C640.228 1250.38 652.489 1235.62 662.08 1205C671.691 1174.31 669.58 1123 669.58 1123C669.58 1123 645.417 1067.19 621.58 1037C593.268 1001.15 577.58 989 533.08 960.5C511.839 946.896 488.08 920.5 488.08 920.5L357.08 925C357.08 925 437.58 950 478.58 971C514.367 989.33 563.58 1059 563.58 1059C563.58 1059 593.822 1100.43 600.08 1131.5C607.986 1170.75 600.961 1196.03 585.58 1233C571.97 1265.71 556.404 1280.33 533.08 1307C490.987 1355.14 446.273 1360.01 404.58 1408.5C361.773 1458.29 354.299 1497.79 322.08 1555C322.212 1597.53 325.364 1621.84 336.08 1663C347.008 1704.97 358.27 1727.17 377.58 1766C390.975 1792.93 407.069 1804.15 415.58 1833C426.189 1868.96 406.08 1924.5 406.08 1924.5Z" fill="#FFE5B4"/>
<path d="M406.08 1924.5C406.08 1924.5 472.566 1940.58 509.08 1948C498.801 1922.25 486.074 1884.7 478.58 1858C467.874 1819.86 438.938 1810.49 415.58 1778.5C400.187 1757.41 390.687 1746.08 377.58 1723.5C364.427 1700.84 356.76 1687.89 348.58 1663C336.656 1626.71 329.752 1603.67 336.08 1566C346.54 1503.75 375.347 1468.51 421.08 1425C457.747 1390.11 501.759 1394.63 539.58 1361C573.943 1330.44 594.86 1313.92 621.58 1276.5C640.228 1250.38 652.489 1235.62 662.08 1205C671.691 1174.31 669.58 1123 669.58 1123C669.58 1123 645.417 1067.19 621.58 1037C593.268 1001.15 577.58 989 533.08 960.5C511.839 946.896 488.08 920.5 488.08 920.5L357.08 925C357.08 925 437.58 950 478.58 971C514.367 989.33 563.58 1059 563.58 1059C563.58 1059 593.822 1100.43 600.08 1131.5C607.986 1170.75 600.961 1196.03 585.58 1233C571.97 1265.71 556.404 1280.33 533.08 1307C490.987 1355.14 446.273 1360.01 404.58 1408.5C361.773 1458.29 354.299 1497.79 322.08 1555C322.212 1597.53 325.364 1621.84 336.08 1663C347.008 1704.97 358.27 1727.17 377.58 1766C390.975 1792.93 407.069 1804.15 415.58 1833C426.189 1868.96 406.08 1924.5 406.08 1924.5Z" fill="#FFE5B4"/>
<path d="M406.08 1924.5C406.08 1924.5 472.566 1940.58 509.08 1948C498.801 1922.25 486.074 1884.7 478.58 1858C467.874 1819.86 438.938 1810.49 415.58 1778.5C400.187 1757.41 390.687 1746.08 377.58 1723.5C364.427 1700.84 356.76 1687.89 348.58 1663C336.656 1626.71 329.752 1603.67 336.08 1566C346.54 1503.75 375.347 1468.51 421.08 1425C457.747 1390.11 501.759 1394.63 539.58 1361C573.943 1330.44 594.86 1313.92 621.58 1276.5C640.228 1250.38 652.489 1235.62 662.08 1205C671.691 1174.31 669.58 1123 669.58 1123C669.58 1123 645.417 1067.19 621.58 1037C593.268 1001.15 577.58 989 533.08 960.5C511.839 946.896 488.08 920.5 488.08 920.5L357.08 925C357.08 925 437.58 950 478.58 971C514.367 989.33 563.58 1059 563.58 1059C563.58 1059 593.822 1100.43 600.08 1131.5C607.986 1170.75 600.961 1196.03 585.58 1233C571.97 1265.71 556.404 1280.33 533.08 1307C490.987 1355.14 446.273 1360.01 404.58 1408.5C361.773 1458.29 354.299 1497.79 322.08 1555C322.212 1597.53 325.364 1621.84 336.08 1663C347.008 1704.97 358.27 1727.17 377.58 1766C390.975 1792.93 407.069 1804.15 415.58 1833C426.189 1868.96 406.08 1924.5 406.08 1924.5Z" fill="#203139"/>
<path d="M406.08 1924.5C406.08 1924.5 472.566 1940.58 509.08 1948C498.801 1922.25 486.074 1884.7 478.58 1858C467.874 1819.86 438.938 1810.49 415.58 1778.5C400.187 1757.41 390.687 1746.08 377.58 1723.5C364.427 1700.84 356.76 1687.89 348.58 1663C336.656 1626.71 329.752 1603.67 336.08 1566C346.54 1503.75 375.347 1468.51 421.08 1425C457.747 1390.11 501.759 1394.63 539.58 1361C573.943 1330.44 594.86 1313.92 621.58 1276.5C640.228 1250.38 652.489 1235.62 662.08 1205C671.691 1174.31 669.58 1123 669.58 1123C669.58 1123 645.417 1067.19 621.58 1037C593.268 1001.15 577.58 989 533.08 960.5C511.839 946.896 488.08 920.5 488.08 920.5L357.08 925C357.08 925 437.58 950 478.58 971C514.367 989.33 563.58 1059 563.58 1059C563.58 1059 593.822 1100.43 600.08 1131.5C607.986 1170.75 600.961 1196.03 585.58 1233C571.97 1265.71 556.404 1280.33 533.08 1307C490.987 1355.14 446.273 1360.01 404.58 1408.5C361.773 1458.29 354.299 1497.79 322.08 1555C322.212 1597.53 325.364 1621.84 336.08 1663C347.008 1704.97 358.27 1727.17 377.58 1766C390.975 1792.93 407.069 1804.15 415.58 1833C426.189 1868.96 406.08 1924.5 406.08 1924.5Z" fill="url(#paint3_linear_187_142)"/>
<path d="M600.08 1131.5C593.822 1100.43 563.58 1059 563.58 1059L494.08 1032C494.08 1032 434.508 1016.7 407.58 989C389.271 970.164 357.08 925 357.08 925C357.08 934.2 364.914 974 368.58 989C372.247 1004 389.167 1031.35 415.58 1048C444.329 1066.12 481.303 1053.73 508.58 1074C537.861 1095.76 556.031 1113.81 563.58 1149.5C569.48 1177.39 555.08 1222 555.08 1222C555.08 1222 537.517 1260.52 522.58 1283C486.338 1337.55 438.911 1344.63 399.58 1397C358.308 1451.95 352.346 1493.3 322.08 1555C354.299 1497.79 361.773 1458.29 404.58 1408.5C446.273 1360.01 490.987 1355.14 533.08 1307C556.404 1280.33 571.97 1265.71 585.58 1233C600.961 1196.03 607.986 1170.75 600.08 1131.5Z" fill="#78A898"/>
<path d="M600.08 1131.5C593.822 1100.43 563.58 1059 563.58 1059L494.08 1032C494.08 1032 434.508 1016.7 407.58 989C389.271 970.164 357.08 925 357.08 925C357.08 934.2 364.914 974 368.58 989C372.247 1004 389.167 1031.35 415.58 1048C444.329 1066.12 481.303 1053.73 508.58 1074C537.861 1095.76 556.031 1113.81 563.58 1149.5C569.48 1177.39 555.08 1222 555.08 1222C555.08 1222 537.517 1260.52 522.58 1283C486.338 1337.55 438.911 1344.63 399.58 1397C358.308 1451.95 352.346 1493.3 322.08 1555C354.299 1497.79 361.773 1458.29 404.58 1408.5C446.273 1360.01 490.987 1355.14 533.08 1307C556.404 1280.33 571.97 1265.71 585.58 1233C600.961 1196.03 607.986 1170.75 600.08 1131.5Z" fill="#3B8381"/>
<path d="M600.08 1131.5C593.822 1100.43 563.58 1059 563.58 1059L494.08 1032C494.08 1032 434.508 1016.7 407.58 989C389.271 970.164 357.08 925 357.08 925C357.08 934.2 364.914 974 368.58 989C372.247 1004 389.167 1031.35 415.58 1048C444.329 1066.12 481.303 1053.73 508.58 1074C537.861 1095.76 556.031 1113.81 563.58 1149.5C569.48 1177.39 555.08 1222 555.08 1222C555.08 1222 537.517 1260.52 522.58 1283C486.338 1337.55 438.911 1344.63 399.58 1397C358.308 1451.95 352.346 1493.3 322.08 1555C354.299 1497.79 361.773 1458.29 404.58 1408.5C446.273 1360.01 490.987 1355.14 533.08 1307C556.404 1280.33 571.97 1265.71 585.58 1233C600.961 1196.03 607.986 1170.75 600.08 1131.5Z" fill="#235760"/>
<path d="M600.08 1131.5C593.822 1100.43 563.58 1059 563.58 1059L494.08 1032C494.08 1032 434.508 1016.7 407.58 989C389.271 970.164 357.08 925 357.08 925C357.08 934.2 364.914 974 368.58 989C372.247 1004 389.167 1031.35 415.58 1048C444.329 1066.12 481.303 1053.73 508.58 1074C537.861 1095.76 556.031 1113.81 563.58 1149.5C569.48 1177.39 555.08 1222 555.08 1222C555.08 1222 537.517 1260.52 522.58 1283C486.338 1337.55 438.911 1344.63 399.58 1397C358.308 1451.95 352.346 1493.3 322.08 1555C354.299 1497.79 361.773 1458.29 404.58 1408.5C446.273 1360.01 490.987 1355.14 533.08 1307C556.404 1280.33 571.97 1265.71 585.58 1233C600.961 1196.03 607.986 1170.75 600.08 1131.5Z" fill="#6D988E"/>
<path d="M600.08 1131.5C593.822 1100.43 563.58 1059 563.58 1059L494.08 1032C494.08 1032 434.508 1016.7 407.58 989C389.271 970.164 357.08 925 357.08 925C357.08 934.2 364.914 974 368.58 989C372.247 1004 389.167 1031.35 415.58 1048C444.329 1066.12 481.303 1053.73 508.58 1074C537.861 1095.76 556.031 1113.81 563.58 1149.5C569.48 1177.39 555.08 1222 555.08 1222C555.08 1222 537.517 1260.52 522.58 1283C486.338 1337.55 438.911 1344.63 399.58 1397C358.308 1451.95 352.346 1493.3 322.08 1555C354.299 1497.79 361.773 1458.29 404.58 1408.5C446.273 1360.01 490.987 1355.14 533.08 1307C556.404 1280.33 571.97 1265.71 585.58 1233C600.961 1196.03 607.986 1170.75 600.08 1131.5Z" fill="#FFE5B4"/>
<path d="M600.08 1131.5C593.822 1100.43 563.58 1059 563.58 1059L494.08 1032C494.08 1032 434.508 1016.7 407.58 989C389.271 970.164 357.08 925 357.08 925C357.08 934.2 364.914 974 368.58 989C372.247 1004 389.167 1031.35 415.58 1048C444.329 1066.12 481.303 1053.73 508.58 1074C537.861 1095.76 556.031 1113.81 563.58 1149.5C569.48 1177.39 555.08 1222 555.08 1222C555.08 1222 537.517 1260.52 522.58 1283C486.338 1337.55 438.911 1344.63 399.58 1397C358.308 1451.95 352.346 1493.3 322.08 1555C354.299 1497.79 361.773 1458.29 404.58 1408.5C446.273 1360.01 490.987 1355.14 533.08 1307C556.404 1280.33 571.97 1265.71 585.58 1233C600.961 1196.03 607.986 1170.75 600.08 1131.5Z" fill="#FFE5B4"/>
<path d="M600.08 1131.5C593.822 1100.43 563.58 1059 563.58 1059L494.08 1032C494.08 1032 434.508 1016.7 407.58 989C389.271 970.164 357.08 925 357.08 925C357.08 934.2 364.914 974 368.58 989C372.247 1004 389.167 1031.35 415.58 1048C444.329 1066.12 481.303 1053.73 508.58 1074C537.861 1095.76 556.031 1113.81 563.58 1149.5C569.48 1177.39 555.08 1222 555.08 1222C555.08 1222 537.517 1260.52 522.58 1283C486.338 1337.55 438.911 1344.63 399.58 1397C358.308 1451.95 352.346 1493.3 322.08 1555C354.299 1497.79 361.773 1458.29 404.58 1408.5C446.273 1360.01 490.987 1355.14 533.08 1307C556.404 1280.33 571.97 1265.71 585.58 1233C600.961 1196.03 607.986 1170.75 600.08 1131.5Z" fill="#203139"/>
<path d="M600.08 1131.5C593.822 1100.43 563.58 1059 563.58 1059L494.08 1032C494.08 1032 434.508 1016.7 407.58 989C389.271 970.164 357.08 925 357.08 925C357.08 934.2 364.914 974 368.58 989C372.247 1004 389.167 1031.35 415.58 1048C444.329 1066.12 481.303 1053.73 508.58 1074C537.861 1095.76 556.031 1113.81 563.58 1149.5C569.48 1177.39 555.08 1222 555.08 1222C555.08 1222 537.517 1260.52 522.58 1283C486.338 1337.55 438.911 1344.63 399.58 1397C358.308 1451.95 352.346 1493.3 322.08 1555C354.299 1497.79 361.773 1458.29 404.58 1408.5C446.273 1360.01 490.987 1355.14 533.08 1307C556.404 1280.33 571.97 1265.71 585.58 1233C600.961 1196.03 607.986 1170.75 600.08 1131.5Z" fill="#FFE5B4"/>
<path d="M600.08 1131.5C593.822 1100.43 563.58 1059 563.58 1059L494.08 1032C494.08 1032 434.508 1016.7 407.58 989C389.271 970.164 357.08 925 357.08 925C357.08 934.2 364.914 974 368.58 989C372.247 1004 389.167 1031.35 415.58 1048C444.329 1066.12 481.303 1053.73 508.58 1074C537.861 1095.76 556.031 1113.81 563.58 1149.5C569.48 1177.39 555.08 1222 555.08 1222C555.08 1222 537.517 1260.52 522.58 1283C486.338 1337.55 438.911 1344.63 399.58 1397C358.308 1451.95 352.346 1493.3 322.08 1555C354.299 1497.79 361.773 1458.29 404.58 1408.5C446.273 1360.01 490.987 1355.14 533.08 1307C556.404 1280.33 571.97 1265.71 585.58 1233C600.961 1196.03 607.986 1170.75 600.08 1131.5Z" fill="url(#paint4_linear_187_142)"/>
<path d="M478.58 971C437.58 950 357.08 925 357.08 925C357.08 925 389.271 970.164 407.58 989C434.508 1016.7 494.08 1032 494.08 1032L563.58 1059C563.58 1059 514.367 989.33 478.58 971Z" fill="#78A898"/>
<path d="M478.58 971C437.58 950 357.08 925 357.08 925C357.08 925 389.271 970.164 407.58 989C434.508 1016.7 494.08 1032 494.08 1032L563.58 1059C563.58 1059 514.367 989.33 478.58 971Z" fill="#3B8381"/>
<path d="M478.58 971C437.58 950 357.08 925 357.08 925C357.08 925 389.271 970.164 407.58 989C434.508 1016.7 494.08 1032 494.08 1032L563.58 1059C563.58 1059 514.367 989.33 478.58 971Z" fill="#235760"/>
<path d="M478.58 971C437.58 950 357.08 925 357.08 925C357.08 925 389.271 970.164 407.58 989C434.508 1016.7 494.08 1032 494.08 1032L563.58 1059C563.58 1059 514.367 989.33 478.58 971Z" fill="#6D988E"/>
<path d="M478.58 971C437.58 950 357.08 925 357.08 925C357.08 925 389.271 970.164 407.58 989C434.508 1016.7 494.08 1032 494.08 1032L563.58 1059C563.58 1059 514.367 989.33 478.58 971Z" fill="#FFE5B4"/>
<path d="M478.58 971C437.58 950 357.08 925 357.08 925C357.08 925 389.271 970.164 407.58 989C434.508 1016.7 494.08 1032 494.08 1032L563.58 1059C563.58 1059 514.367 989.33 478.58 971Z" fill="#FFE5B4"/>
<path d="M478.58 971C437.58 950 357.08 925 357.08 925C357.08 925 389.271 970.164 407.58 989C434.508 1016.7 494.08 1032 494.08 1032L563.58 1059C563.58 1059 514.367 989.33 478.58 971Z" fill="#203139"/>
<path d="M478.58 971C437.58 950 357.08 925 357.08 925C357.08 925 389.271 970.164 407.58 989C434.508 1016.7 494.08 1032 494.08 1032L563.58 1059C563.58 1059 514.367 989.33 478.58 971Z" fill="#FFE5B4"/>
<path d="M451.08 23.5C442.217 21.1752 434.692 19.3706 427.676 17.688C409.409 13.3074 394.59 9.75359 368.58 0C404.58 42 440.932 71.7467 451.08 124C463.62 188.569 387.58 280 387.58 280C387.58 280 461.491 236.225 488.08 178.5C497.977 157.014 511.588 118.464 508.58 95C503.58 56 481.58 31.5 451.08 23.5Z" fill="#78A898"/>
<path d="M451.08 23.5C442.217 21.1752 434.692 19.3706 427.676 17.688C409.409 13.3074 394.59 9.75359 368.58 0C404.58 42 440.932 71.7467 451.08 124C463.62 188.569 387.58 280 387.58 280C387.58 280 461.491 236.225 488.08 178.5C497.977 157.014 511.588 118.464 508.58 95C503.58 56 481.58 31.5 451.08 23.5Z" fill="#3B8381"/>
<path d="M451.08 23.5C442.217 21.1752 434.692 19.3706 427.676 17.688C409.409 13.3074 394.59 9.75359 368.58 0C404.58 42 440.932 71.7467 451.08 124C463.62 188.569 387.58 280 387.58 280C387.58 280 461.491 236.225 488.08 178.5C497.977 157.014 511.588 118.464 508.58 95C503.58 56 481.58 31.5 451.08 23.5Z" fill="#235760"/>
<path d="M451.08 23.5C442.217 21.1752 434.692 19.3706 427.676 17.688C409.409 13.3074 394.59 9.75359 368.58 0C404.58 42 440.932 71.7467 451.08 124C463.62 188.569 387.58 280 387.58 280C387.58 280 461.491 236.225 488.08 178.5C497.977 157.014 511.588 118.464 508.58 95C503.58 56 481.58 31.5 451.08 23.5Z" fill="#6D988E"/>
<path d="M451.08 23.5C442.217 21.1752 434.692 19.3706 427.676 17.688C409.409 13.3074 394.59 9.75359 368.58 0C404.58 42 440.932 71.7467 451.08 124C463.62 188.569 387.58 280 387.58 280C387.58 280 461.491 236.225 488.08 178.5C497.977 157.014 511.588 118.464 508.58 95C503.58 56 481.58 31.5 451.08 23.5Z" fill="#FFE5B4"/>
<path d="M451.08 23.5C442.217 21.1752 434.692 19.3706 427.676 17.688C409.409 13.3074 394.59 9.75359 368.58 0C404.58 42 440.932 71.7467 451.08 124C463.62 188.569 387.58 280 387.58 280C387.58 280 461.491 236.225 488.08 178.5C497.977 157.014 511.588 118.464 508.58 95C503.58 56 481.58 31.5 451.08 23.5Z" fill="#FFE5B4"/>
<path d="M451.08 23.5C442.217 21.1752 434.692 19.3706 427.676 17.688C409.409 13.3074 394.59 9.75359 368.58 0C404.58 42 440.932 71.7467 451.08 124C463.62 188.569 387.58 280 387.58 280C387.58 280 461.491 236.225 488.08 178.5C497.977 157.014 511.588 118.464 508.58 95C503.58 56 481.58 31.5 451.08 23.5Z" fill="#203139"/>
<path d="M451.08 23.5C442.217 21.1752 434.692 19.3706 427.676 17.688C409.409 13.3074 394.59 9.75359 368.58 0C404.58 42 440.932 71.7467 451.08 124C463.62 188.569 387.58 280 387.58 280C387.58 280 461.491 236.225 488.08 178.5C497.977 157.014 511.588 118.464 508.58 95C503.58 56 481.58 31.5 451.08 23.5Z" fill="url(#paint5_linear_187_142)"/>
<path d="M495.578 2041.11C486.331 2031.91 406.08 1924.5 406.08 1924.5C406.08 1924.5 388.71 1952.84 377.58 1971C380.103 1978.8 381.486 1988.89 382.926 1999.39C386.1 2022.53 389.552 2047.7 406.08 2055C423.703 2062.78 438.917 2065.73 453.783 2068.62C471.394 2072.03 488.517 2075.35 508.58 2086.5C533.127 2100.14 564.08 2139 564.08 2139C564.08 2139 524.077 2069.47 495.578 2041.11Z" fill="#78A898"/>
<path d="M495.578 2041.11C486.331 2031.91 406.08 1924.5 406.08 1924.5C406.08 1924.5 388.71 1952.84 377.58 1971C380.103 1978.8 381.486 1988.89 382.926 1999.39C386.1 2022.53 389.552 2047.7 406.08 2055C423.703 2062.78 438.917 2065.73 453.783 2068.62C471.394 2072.03 488.517 2075.35 508.58 2086.5C533.127 2100.14 564.08 2139 564.08 2139C564.08 2139 524.077 2069.47 495.578 2041.11Z" fill="#3B8381"/>
<path d="M495.578 2041.11C486.331 2031.91 406.08 1924.5 406.08 1924.5C406.08 1924.5 388.71 1952.84 377.58 1971C380.103 1978.8 381.486 1988.89 382.926 1999.39C386.1 2022.53 389.552 2047.7 406.08 2055C423.703 2062.78 438.917 2065.73 453.783 2068.62C471.394 2072.03 488.517 2075.35 508.58 2086.5C533.127 2100.14 564.08 2139 564.08 2139C564.08 2139 524.077 2069.47 495.578 2041.11Z" fill="#235760"/>
<path d="M495.578 2041.11C486.331 2031.91 406.08 1924.5 406.08 1924.5C406.08 1924.5 388.71 1952.84 377.58 1971C380.103 1978.8 381.486 1988.89 382.926 1999.39C386.1 2022.53 389.552 2047.7 406.08 2055C423.703 2062.78 438.917 2065.73 453.783 2068.62C471.394 2072.03 488.517 2075.35 508.58 2086.5C533.127 2100.14 564.08 2139 564.08 2139C564.08 2139 524.077 2069.47 495.578 2041.11Z" fill="#6D988E"/>
<path d="M495.578 2041.11C486.331 2031.91 406.08 1924.5 406.08 1924.5C406.08 1924.5 388.71 1952.84 377.58 1971C380.103 1978.8 381.486 1988.89 382.926 1999.39C386.1 2022.53 389.552 2047.7 406.08 2055C423.703 2062.78 438.917 2065.73 453.783 2068.62C471.394 2072.03 488.517 2075.35 508.58 2086.5C533.127 2100.14 564.08 2139 564.08 2139C564.08 2139 524.077 2069.47 495.578 2041.11Z" fill="#FFE5B4"/>
<path d="M495.578 2041.11C486.331 2031.91 406.08 1924.5 406.08 1924.5C406.08 1924.5 388.71 1952.84 377.58 1971C380.103 1978.8 381.486 1988.89 382.926 1999.39C386.1 2022.53 389.552 2047.7 406.08 2055C423.703 2062.78 438.917 2065.73 453.783 2068.62C471.394 2072.03 488.517 2075.35 508.58 2086.5C533.127 2100.14 564.08 2139 564.08 2139C564.08 2139 524.077 2069.47 495.578 2041.11Z" fill="#FFE5B4"/>
<path d="M495.578 2041.11C486.331 2031.91 406.08 1924.5 406.08 1924.5C406.08 1924.5 388.71 1952.84 377.58 1971C380.103 1978.8 381.486 1988.89 382.926 1999.39C386.1 2022.53 389.552 2047.7 406.08 2055C423.703 2062.78 438.917 2065.73 453.783 2068.62C471.394 2072.03 488.517 2075.35 508.58 2086.5C533.127 2100.14 564.08 2139 564.08 2139C564.08 2139 524.077 2069.47 495.578 2041.11Z" fill="#203139"/>
<path d="M495.578 2041.11C486.331 2031.91 406.08 1924.5 406.08 1924.5C406.08 1924.5 388.71 1952.84 377.58 1971C380.103 1978.8 381.486 1988.89 382.926 1999.39C386.1 2022.53 389.552 2047.7 406.08 2055C423.703 2062.78 438.917 2065.73 453.783 2068.62C471.394 2072.03 488.517 2075.35 508.58 2086.5C533.127 2100.14 564.08 2139 564.08 2139C564.08 2139 524.077 2069.47 495.578 2041.11Z" fill="#FFE5B4"/>
<path fill-rule="evenodd" clip-rule="evenodd" d="M580.219 2164H649.142C640.994 2148.74 631.26 2132.26 621.58 2120C593.268 2084.15 530.582 1988.31 509.08 1948C472.566 1940.58 406.08 1924.5 406.08 1924.5C406.08 1924.5 486.331 2031.91 495.578 2041.11C524.077 2069.47 564.08 2139 564.08 2139C564.08 2139 571.784 2149.55 580.219 2164Z" fill="#78A898"/>
<path fill-rule="evenodd" clip-rule="evenodd" d="M580.219 2164H649.142C640.994 2148.74 631.26 2132.26 621.58 2120C593.268 2084.15 530.582 1988.31 509.08 1948C472.566 1940.58 406.08 1924.5 406.08 1924.5C406.08 1924.5 486.331 2031.91 495.578 2041.11C524.077 2069.47 564.08 2139 564.08 2139C564.08 2139 571.784 2149.55 580.219 2164Z" fill="#3B8381"/>
<path fill-rule="evenodd" clip-rule="evenodd" d="M580.219 2164H649.142C640.994 2148.74 631.26 2132.26 621.58 2120C593.268 2084.15 530.582 1988.31 509.08 1948C472.566 1940.58 406.08 1924.5 406.08 1924.5C406.08 1924.5 486.331 2031.91 495.578 2041.11C524.077 2069.47 564.08 2139 564.08 2139C564.08 2139 571.784 2149.55 580.219 2164Z" fill="#235760"/>
<path fill-rule="evenodd" clip-rule="evenodd" d="M580.219 2164H649.142C640.994 2148.74 631.26 2132.26 621.58 2120C593.268 2084.15 530.582 1988.31 509.08 1948C472.566 1940.58 406.08 1924.5 406.08 1924.5C406.08 1924.5 486.331 2031.91 495.578 2041.11C524.077 2069.47 564.08 2139 564.08 2139C564.08 2139 571.784 2149.55 580.219 2164Z" fill="#6D988E"/>
<path fill-rule="evenodd" clip-rule="evenodd" d="M580.219 2164H649.142C640.994 2148.74 631.26 2132.26 621.58 2120C593.268 2084.15 530.582 1988.31 509.08 1948C472.566 1940.58 406.08 1924.5 406.08 1924.5C406.08 1924.5 486.331 2031.91 495.578 2041.11C524.077 2069.47 564.08 2139 564.08 2139C564.08 2139 571.784 2149.55 580.219 2164Z" fill="#FFE5B4"/>
<path fill-rule="evenodd" clip-rule="evenodd" d="M580.219 2164H649.142C640.994 2148.74 631.26 2132.26 621.58 2120C593.268 2084.15 530.582 1988.31 509.08 1948C472.566 1940.58 406.08 1924.5 406.08 1924.5C406.08 1924.5 486.331 2031.91 495.578 2041.11C524.077 2069.47 564.08 2139 564.08 2139C564.08 2139 571.784 2149.55 580.219 2164Z" fill="#FFE5B4"/>
<path fill-rule="evenodd" clip-rule="evenodd" d="M580.219 2164H649.142C640.994 2148.74 631.26 2132.26 621.58 2120C593.268 2084.15 530.582 1988.31 509.08 1948C472.566 1940.58 406.08 1924.5 406.08 1924.5C406.08 1924.5 486.331 2031.91 495.578 2041.11C524.077 2069.47 564.08 2139 564.08 2139C564.08 2139 571.784 2149.55 580.219 2164Z" fill="#203139"/>
<path fill-rule="evenodd" clip-rule="evenodd" d="M580.219 2164H649.142C640.994 2148.74 631.26 2132.26 621.58 2120C593.268 2084.15 530.582 1988.31 509.08 1948C472.566 1940.58 406.08 1924.5 406.08 1924.5C406.08 1924.5 486.331 2031.91 495.578 2041.11C524.077 2069.47 564.08 2139 564.08 2139C564.08 2139 571.784 2149.55 580.219 2164Z" fill="url(#paint6_linear_187_142)"/>
<path fill-rule="evenodd" clip-rule="evenodd" d="M588.58 1980C597.096 2018.9 609.294 2042.53 636.08 2072C641.732 2078.22 647.197 2083.89 652.446 2089.35C673.35 2111.06 690.84 2129.22 703.165 2164H649.142C640.994 2148.74 631.26 2132.26 621.58 2120C593.268 2084.15 530.582 1988.31 509.08 1948C533.052 1972.65 554.214 1981.17 588.58 1980Z" fill="url(#paint7_linear_187_142)"/>
<path fill-rule="evenodd" clip-rule="evenodd" d="M521.983 2164H580.219C571.784 2149.55 564.08 2139 564.08 2139C564.08 2139 533.127 2100.14 508.58 2086.5C488.517 2075.35 471.394 2072.03 453.783 2068.62C438.917 2065.73 423.703 2062.78 406.08 2055C389.552 2047.7 386.1 2022.53 382.926 1999.39C381.486 1988.89 380.103 1978.8 377.58 1971C377.58 1972.33 377.546 1975.25 377.497 1979.32C377.211 2003.48 376.443 2068.16 379.58 2081C383.247 2096 389.667 2111.35 416.08 2128C429.946 2136.74 445.726 2138.38 461.408 2140.02C478.24 2141.77 494.959 2143.51 509.08 2154C513.651 2157.4 517.952 2160.7 521.983 2164Z" fill="#78A898"/>
<path fill-rule="evenodd" clip-rule="evenodd" d="M521.983 2164H580.219C571.784 2149.55 564.08 2139 564.08 2139C564.08 2139 533.127 2100.14 508.58 2086.5C488.517 2075.35 471.394 2072.03 453.783 2068.62C438.917 2065.73 423.703 2062.78 406.08 2055C389.552 2047.7 386.1 2022.53 382.926 1999.39C381.486 1988.89 380.103 1978.8 377.58 1971C377.58 1972.33 377.546 1975.25 377.497 1979.32C377.211 2003.48 376.443 2068.16 379.58 2081C383.247 2096 389.667 2111.35 416.08 2128C429.946 2136.74 445.726 2138.38 461.408 2140.02C478.24 2141.77 494.959 2143.51 509.08 2154C513.651 2157.4 517.952 2160.7 521.983 2164Z" fill="#3B8381"/>
<path fill-rule="evenodd" clip-rule="evenodd" d="M521.983 2164H580.219C571.784 2149.55 564.08 2139 564.08 2139C564.08 2139 533.127 2100.14 508.58 2086.5C488.517 2075.35 471.394 2072.03 453.783 2068.62C438.917 2065.73 423.703 2062.78 406.08 2055C389.552 2047.7 386.1 2022.53 382.926 1999.39C381.486 1988.89 380.103 1978.8 377.58 1971C377.58 1972.33 377.546 1975.25 377.497 1979.32C377.211 2003.48 376.443 2068.16 379.58 2081C383.247 2096 389.667 2111.35 416.08 2128C429.946 2136.74 445.726 2138.38 461.408 2140.02C478.24 2141.77 494.959 2143.51 509.08 2154C513.651 2157.4 517.952 2160.7 521.983 2164Z" fill="#235760"/>
<path fill-rule="evenodd" clip-rule="evenodd" d="M521.983 2164H580.219C571.784 2149.55 564.08 2139 564.08 2139C564.08 2139 533.127 2100.14 508.58 2086.5C488.517 2075.35 471.394 2072.03 453.783 2068.62C438.917 2065.73 423.703 2062.78 406.08 2055C389.552 2047.7 386.1 2022.53 382.926 1999.39C381.486 1988.89 380.103 1978.8 377.58 1971C377.58 1972.33 377.546 1975.25 377.497 1979.32C377.211 2003.48 376.443 2068.16 379.58 2081C383.247 2096 389.667 2111.35 416.08 2128C429.946 2136.74 445.726 2138.38 461.408 2140.02C478.24 2141.77 494.959 2143.51 509.08 2154C513.651 2157.4 517.952 2160.7 521.983 2164Z" fill="#6D988E"/>
<path fill-rule="evenodd" clip-rule="evenodd" d="M521.983 2164H580.219C571.784 2149.55 564.08 2139 564.08 2139C564.08 2139 533.127 2100.14 508.58 2086.5C488.517 2075.35 471.394 2072.03 453.783 2068.62C438.917 2065.73 423.703 2062.78 406.08 2055C389.552 2047.7 386.1 2022.53 382.926 1999.39C381.486 1988.89 380.103 1978.8 377.58 1971C377.58 1972.33 377.546 1975.25 377.497 1979.32C377.211 2003.48 376.443 2068.16 379.58 2081C383.247 2096 389.667 2111.35 416.08 2128C429.946 2136.74 445.726 2138.38 461.408 2140.02C478.24 2141.77 494.959 2143.51 509.08 2154C513.651 2157.4 517.952 2160.7 521.983 2164Z" fill="#FFE5B4"/>
<path fill-rule="evenodd" clip-rule="evenodd" d="M521.983 2164H580.219C571.784 2149.55 564.08 2139 564.08 2139C564.08 2139 533.127 2100.14 508.58 2086.5C488.517 2075.35 471.394 2072.03 453.783 2068.62C438.917 2065.73 423.703 2062.78 406.08 2055C389.552 2047.7 386.1 2022.53 382.926 1999.39C381.486 1988.89 380.103 1978.8 377.58 1971C377.58 1972.33 377.546 1975.25 377.497 1979.32C377.211 2003.48 376.443 2068.16 379.58 2081C383.247 2096 389.667 2111.35 416.08 2128C429.946 2136.74 445.726 2138.38 461.408 2140.02C478.24 2141.77 494.959 2143.51 509.08 2154C513.651 2157.4 517.952 2160.7 521.983 2164Z" fill="#FFE5B4"/>
<path fill-rule="evenodd" clip-rule="evenodd" d="M521.983 2164H580.219C571.784 2149.55 564.08 2139 564.08 2139C564.08 2139 533.127 2100.14 508.58 2086.5C488.517 2075.35 471.394 2072.03 453.783 2068.62C438.917 2065.73 423.703 2062.78 406.08 2055C389.552 2047.7 386.1 2022.53 382.926 1999.39C381.486 1988.89 380.103 1978.8 377.58 1971C377.58 1972.33 377.546 1975.25 377.497 1979.32C377.211 2003.48 376.443 2068.16 379.58 2081C383.247 2096 389.667 2111.35 416.08 2128C429.946 2136.74 445.726 2138.38 461.408 2140.02C478.24 2141.77 494.959 2143.51 509.08 2154C513.651 2157.4 517.952 2160.7 521.983 2164Z" fill="#203139"/>
<path fill-rule="evenodd" clip-rule="evenodd" d="M521.983 2164H580.219C571.784 2149.55 564.08 2139 564.08 2139C564.08 2139 533.127 2100.14 508.58 2086.5C488.517 2075.35 471.394 2072.03 453.783 2068.62C438.917 2065.73 423.703 2062.78 406.08 2055C389.552 2047.7 386.1 2022.53 382.926 1999.39C381.486 1988.89 380.103 1978.8 377.58 1971C377.58 1972.33 377.546 1975.25 377.497 1979.32C377.211 2003.48 376.443 2068.16 379.58 2081C383.247 2096 389.667 2111.35 416.08 2128C429.946 2136.74 445.726 2138.38 461.408 2140.02C478.24 2141.77 494.959 2143.51 509.08 2154C513.651 2157.4 517.952 2160.7 521.983 2164Z" fill="#FFE5B4"/>
<path fill-rule="evenodd" clip-rule="evenodd" d="M521.983 2164H580.219C571.784 2149.55 564.08 2139 564.08 2139C564.08 2139 533.127 2100.14 508.58 2086.5C488.517 2075.35 471.394 2072.03 453.783 2068.62C438.917 2065.73 423.703 2062.78 406.08 2055C389.552 2047.7 386.1 2022.53 382.926 1999.39C381.486 1988.89 380.103 1978.8 377.58 1971C377.58 1972.33 377.546 1975.25 377.497 1979.32C377.211 2003.48 376.443 2068.16 379.58 2081C383.247 2096 389.667 2111.35 416.08 2128C429.946 2136.74 445.726 2138.38 461.408 2140.02C478.24 2141.77 494.959 2143.51 509.08 2154C513.651 2157.4 517.952 2160.7 521.983 2164Z" fill="url(#paint8_linear_187_142)"/>
<path fill-rule="evenodd" clip-rule="evenodd" d="M377.497 1979.32C377.211 2003.48 376.443 2068.16 379.58 2081C383.247 2096 389.667 2111.35 416.08 2128C429.946 2136.74 445.726 2138.38 461.408 2140.02C478.24 2141.77 494.959 2143.51 509.08 2154C513.651 2157.4 517.952 2160.7 521.983 2164H368.58C367.733 2163.01 366.898 2162.04 366.074 2161.08C348.571 2140.74 336.591 2126.81 336.08 2092C335.625 2060.97 348.58 2013.5 377.58 1971C377.58 1972.33 377.546 1975.25 377.497 1979.32Z" fill="#78A898"/>
<path fill-rule="evenodd" clip-rule="evenodd" d="M377.497 1979.32C377.211 2003.48 376.443 2068.16 379.58 2081C383.247 2096 389.667 2111.35 416.08 2128C429.946 2136.74 445.726 2138.38 461.408 2140.02C478.24 2141.77 494.959 2143.51 509.08 2154C513.651 2157.4 517.952 2160.7 521.983 2164H368.58C367.733 2163.01 366.898 2162.04 366.074 2161.08C348.571 2140.74 336.591 2126.81 336.08 2092C335.625 2060.97 348.58 2013.5 377.58 1971C377.58 1972.33 377.546 1975.25 377.497 1979.32Z" fill="#3B8381"/>
<path fill-rule="evenodd" clip-rule="evenodd" d="M377.497 1979.32C377.211 2003.48 376.443 2068.16 379.58 2081C383.247 2096 389.667 2111.35 416.08 2128C429.946 2136.74 445.726 2138.38 461.408 2140.02C478.24 2141.77 494.959 2143.51 509.08 2154C513.651 2157.4 517.952 2160.7 521.983 2164H368.58C367.733 2163.01 366.898 2162.04 366.074 2161.08C348.571 2140.74 336.591 2126.81 336.08 2092C335.625 2060.97 348.58 2013.5 377.58 1971C377.58 1972.33 377.546 1975.25 377.497 1979.32Z" fill="#235760"/>
<path fill-rule="evenodd" clip-rule="evenodd" d="M377.497 1979.32C377.211 2003.48 376.443 2068.16 379.58 2081C383.247 2096 389.667 2111.35 416.08 2128C429.946 2136.74 445.726 2138.38 461.408 2140.02C478.24 2141.77 494.959 2143.51 509.08 2154C513.651 2157.4 517.952 2160.7 521.983 2164H368.58C367.733 2163.01 366.898 2162.04 366.074 2161.08C348.571 2140.74 336.591 2126.81 336.08 2092C335.625 2060.97 348.58 2013.5 377.58 1971C377.58 1972.33 377.546 1975.25 377.497 1979.32Z" fill="#6D988E"/>
<path fill-rule="evenodd" clip-rule="evenodd" d="M377.497 1979.32C377.211 2003.48 376.443 2068.16 379.58 2081C383.247 2096 389.667 2111.35 416.08 2128C429.946 2136.74 445.726 2138.38 461.408 2140.02C478.24 2141.77 494.959 2143.51 509.08 2154C513.651 2157.4 517.952 2160.7 521.983 2164H368.58C367.733 2163.01 366.898 2162.04 366.074 2161.08C348.571 2140.74 336.591 2126.81 336.08 2092C335.625 2060.97 348.58 2013.5 377.58 1971C377.58 1972.33 377.546 1975.25 377.497 1979.32Z" fill="#FFE5B4"/>
<path fill-rule="evenodd" clip-rule="evenodd" d="M377.497 1979.32C377.211 2003.48 376.443 2068.16 379.58 2081C383.247 2096 389.667 2111.35 416.08 2128C429.946 2136.74 445.726 2138.38 461.408 2140.02C478.24 2141.77 494.959 2143.51 509.08 2154C513.651 2157.4 517.952 2160.7 521.983 2164H368.58C367.733 2163.01 366.898 2162.04 366.074 2161.08C348.571 2140.74 336.591 2126.81 336.08 2092C335.625 2060.97 348.58 2013.5 377.58 1971C377.58 1972.33 377.546 1975.25 377.497 1979.32Z" fill="#FFE5B4"/>
<path fill-rule="evenodd" clip-rule="evenodd" d="M377.497 1979.32C377.211 2003.48 376.443 2068.16 379.58 2081C383.247 2096 389.667 2111.35 416.08 2128C429.946 2136.74 445.726 2138.38 461.408 2140.02C478.24 2141.77 494.959 2143.51 509.08 2154C513.651 2157.4 517.952 2160.7 521.983 2164H368.58C367.733 2163.01 366.898 2162.04 366.074 2161.08C348.571 2140.74 336.591 2126.81 336.08 2092C335.625 2060.97 348.58 2013.5 377.58 1971C377.58 1972.33 377.546 1975.25 377.497 1979.32Z" fill="#203139"/>
<path fill-rule="evenodd" clip-rule="evenodd" d="M377.497 1979.32C377.211 2003.48 376.443 2068.16 379.58 2081C383.247 2096 389.667 2111.35 416.08 2128C429.946 2136.74 445.726 2138.38 461.408 2140.02C478.24 2141.77 494.959 2143.51 509.08 2154C513.651 2157.4 517.952 2160.7 521.983 2164H368.58C367.733 2163.01 366.898 2162.04 366.074 2161.08C348.571 2140.74 336.591 2126.81 336.08 2092C335.625 2060.97 348.58 2013.5 377.58 1971C377.58 1972.33 377.546 1975.25 377.497 1979.32Z" fill="url(#paint9_linear_187_142)"/>
<path fill-rule="evenodd" clip-rule="evenodd" d="M517.747 0H368.58C394.59 9.75359 409.409 13.3074 427.676 17.688C434.692 19.3706 442.217 21.1752 451.08 23.5C481.58 31.5 503.58 56 508.58 95C511.588 118.464 497.977 157.014 488.08 178.5C461.491 236.225 387.58 280 387.58 280C387.58 280 334.745 377.092 325.08 445.5C324.065 452.687 323.597 457.858 323.075 463.642C322.791 466.775 322.492 470.089 322.08 474C332.716 452.316 340.351 433.147 347.571 415.018C360.897 381.558 372.812 351.642 399.58 316C418.438 290.892 439.156 276.194 459.611 261.683C481.818 245.929 503.714 230.396 522.58 202C537.517 179.518 555.08 141 555.08 141C555.08 141 569.48 96.3898 563.58 68.5C556.853 36.6956 541.69 18.8955 517.747 0Z" fill="#78A898"/>
<path fill-rule="evenodd" clip-rule="evenodd" d="M517.747 0H368.58C394.59 9.75359 409.409 13.3074 427.676 17.688C434.692 19.3706 442.217 21.1752 451.08 23.5C481.58 31.5 503.58 56 508.58 95C511.588 118.464 497.977 157.014 488.08 178.5C461.491 236.225 387.58 280 387.58 280C387.58 280 334.745 377.092 325.08 445.5C324.065 452.687 323.597 457.858 323.075 463.642C322.791 466.775 322.492 470.089 322.08 474C332.716 452.316 340.351 433.147 347.571 415.018C360.897 381.558 372.812 351.642 399.58 316C418.438 290.892 439.156 276.194 459.611 261.683C481.818 245.929 503.714 230.396 522.58 202C537.517 179.518 555.08 141 555.08 141C555.08 141 569.48 96.3898 563.58 68.5C556.853 36.6956 541.69 18.8955 517.747 0Z" fill="#3B8381"/>
<path fill-rule="evenodd" clip-rule="evenodd" d="M517.747 0H368.58C394.59 9.75359 409.409 13.3074 427.676 17.688C434.692 19.3706 442.217 21.1752 451.08 23.5C481.58 31.5 503.58 56 508.58 95C511.588 118.464 497.977 157.014 488.08 178.5C461.491 236.225 387.58 280 387.58 280C387.58 280 334.745 377.092 325.08 445.5C324.065 452.687 323.597 457.858 323.075 463.642C322.791 466.775 322.492 470.089 322.08 474C332.716 452.316 340.351 433.147 347.571 415.018C360.897 381.558 372.812 351.642 399.58 316C418.438 290.892 439.156 276.194 459.611 261.683C481.818 245.929 503.714 230.396 522.58 202C537.517 179.518 555.08 141 555.08 141C555.08 141 569.48 96.3898 563.58 68.5C556.853 36.6956 541.69 18.8955 517.747 0Z" fill="#235760"/>
<path fill-rule="evenodd" clip-rule="evenodd" d="M517.747 0H368.58C394.59 9.75359 409.409 13.3074 427.676 17.688C434.692 19.3706 442.217 21.1752 451.08 23.5C481.58 31.5 503.58 56 508.58 95C511.588 118.464 497.977 157.014 488.08 178.5C461.491 236.225 387.58 280 387.58 280C387.58 280 334.745 377.092 325.08 445.5C324.065 452.687 323.597 457.858 323.075 463.642C322.791 466.775 322.492 470.089 322.08 474C332.716 452.316 340.351 433.147 347.571 415.018C360.897 381.558 372.812 351.642 399.58 316C418.438 290.892 439.156 276.194 459.611 261.683C481.818 245.929 503.714 230.396 522.58 202C537.517 179.518 555.08 141 555.08 141C555.08 141 569.48 96.3898 563.58 68.5C556.853 36.6956 541.69 18.8955 517.747 0Z" fill="#6D988E"/>
<path fill-rule="evenodd" clip-rule="evenodd" d="M517.747 0H368.58C394.59 9.75359 409.409 13.3074 427.676 17.688C434.692 19.3706 442.217 21.1752 451.08 23.5C481.58 31.5 503.58 56 508.58 95C511.588 118.464 497.977 157.014 488.08 178.5C461.491 236.225 387.58 280 387.58 280C387.58 280 334.745 377.092 325.08 445.5C324.065 452.687 323.597 457.858 323.075 463.642C322.791 466.775 322.492 470.089 322.08 474C332.716 452.316 340.351 433.147 347.571 415.018C360.897 381.558 372.812 351.642 399.58 316C418.438 290.892 439.156 276.194 459.611 261.683C481.818 245.929 503.714 230.396 522.58 202C537.517 179.518 555.08 141 555.08 141C555.08 141 569.48 96.3898 563.58 68.5C556.853 36.6956 541.69 18.8955 517.747 0Z" fill="#FFE5B4"/>
<path fill-rule="evenodd" clip-rule="evenodd" d="M517.747 0H368.58C394.59 9.75359 409.409 13.3074 427.676 17.688C434.692 19.3706 442.217 21.1752 451.08 23.5C481.58 31.5 503.58 56 508.58 95C511.588 118.464 497.977 157.014 488.08 178.5C461.491 236.225 387.58 280 387.58 280C387.58 280 334.745 377.092 325.08 445.5C324.065 452.687 323.597 457.858 323.075 463.642C322.791 466.775 322.492 470.089 322.08 474C332.716 452.316 340.351 433.147 347.571 415.018C360.897 381.558 372.812 351.642 399.58 316C418.438 290.892 439.156 276.194 459.611 261.683C481.818 245.929 503.714 230.396 522.58 202C537.517 179.518 555.08 141 555.08 141C555.08 141 569.48 96.3898 563.58 68.5C556.853 36.6956 541.69 18.8955 517.747 0Z" fill="#FFE5B4"/>
<path fill-rule="evenodd" clip-rule="evenodd" d="M517.747 0H368.58C394.59 9.75359 409.409 13.3074 427.676 17.688C434.692 19.3706 442.217 21.1752 451.08 23.5C481.58 31.5 503.58 56 508.58 95C511.588 118.464 497.977 157.014 488.08 178.5C461.491 236.225 387.58 280 387.58 280C387.58 280 334.745 377.092 325.08 445.5C324.065 452.687 323.597 457.858 323.075 463.642C322.791 466.775 322.492 470.089 322.08 474C332.716 452.316 340.351 433.147 347.571 415.018C360.897 381.558 372.812 351.642 399.58 316C418.438 290.892 439.156 276.194 459.611 261.683C481.818 245.929 503.714 230.396 522.58 202C537.517 179.518 555.08 141 555.08 141C555.08 141 569.48 96.3898 563.58 68.5C556.853 36.6956 541.69 18.8955 517.747 0Z" fill="#203139"/>
<path fill-rule="evenodd" clip-rule="evenodd" d="M517.747 0H368.58C394.59 9.75359 409.409 13.3074 427.676 17.688C434.692 19.3706 442.217 21.1752 451.08 23.5C481.58 31.5 503.58 56 508.58 95C511.588 118.464 497.977 157.014 488.08 178.5C461.491 236.225 387.58 280 387.58 280C387.58 280 334.745 377.092 325.08 445.5C324.065 452.687 323.597 457.858 323.075 463.642C322.791 466.775 322.492 470.089 322.08 474C332.716 452.316 340.351 433.147 347.571 415.018C360.897 381.558 372.812 351.642 399.58 316C418.438 290.892 439.156 276.194 459.611 261.683C481.818 245.929 503.714 230.396 522.58 202C537.517 179.518 555.08 141 555.08 141C555.08 141 569.48 96.3898 563.58 68.5C556.853 36.6956 541.69 18.8955 517.747 0Z" fill="url(#paint10_linear_187_142)"/>
<path fill-rule="evenodd" clip-rule="evenodd" d="M577.946 0C586.674 14.585 596.758 34.0014 600.08 50.5C607.985 89.7525 600.961 115.031 585.58 152C573.897 180.081 560.773 194.824 542.539 215.307C539.531 218.686 536.383 222.222 533.08 226C512.172 249.912 490.617 263.148 469.107 276.357C447.312 289.741 425.563 303.096 404.58 327.5C376.816 359.791 363.915 387.755 349.486 419.031C341.669 435.977 333.402 453.895 322.08 474C332.716 452.316 340.351 433.147 347.571 415.018C360.897 381.558 372.812 351.642 399.58 316C418.438 290.892 439.156 276.194 459.611 261.683C481.818 245.929 503.714 230.396 522.58 202C537.517 179.518 555.08 141 555.08 141C555.08 141 569.48 96.3898 563.58 68.5C556.853 36.6956 541.69 18.8955 517.747 0H577.946Z" fill="#78A898"/>
<path fill-rule="evenodd" clip-rule="evenodd" d="M577.946 0C586.674 14.585 596.758 34.0014 600.08 50.5C607.985 89.7525 600.961 115.031 585.58 152C573.897 180.081 560.773 194.824 542.539 215.307C539.531 218.686 536.383 222.222 533.08 226C512.172 249.912 490.617 263.148 469.107 276.357C447.312 289.741 425.563 303.096 404.58 327.5C376.816 359.791 363.915 387.755 349.486 419.031C341.669 435.977 333.402 453.895 322.08 474C332.716 452.316 340.351 433.147 347.571 415.018C360.897 381.558 372.812 351.642 399.58 316C418.438 290.892 439.156 276.194 459.611 261.683C481.818 245.929 503.714 230.396 522.58 202C537.517 179.518 555.08 141 555.08 141C555.08 141 569.48 96.3898 563.58 68.5C556.853 36.6956 541.69 18.8955 517.747 0H577.946Z" fill="#3B8381"/>
<path fill-rule="evenodd" clip-rule="evenodd" d="M577.946 0C586.674 14.585 596.758 34.0014 600.08 50.5C607.985 89.7525 600.961 115.031 585.58 152C573.897 180.081 560.773 194.824 542.539 215.307C539.531 218.686 536.383 222.222 533.08 226C512.172 249.912 490.617 263.148 469.107 276.357C447.312 289.741 425.563 303.096 404.58 327.5C376.816 359.791 363.915 387.755 349.486 419.031C341.669 435.977 333.402 453.895 322.08 474C332.716 452.316 340.351 433.147 347.571 415.018C360.897 381.558 372.812 351.642 399.58 316C418.438 290.892 439.156 276.194 459.611 261.683C481.818 245.929 503.714 230.396 522.58 202C537.517 179.518 555.08 141 555.08 141C555.08 141 569.48 96.3898 563.58 68.5C556.853 36.6956 541.69 18.8955 517.747 0H577.946Z" fill="#235760"/>
<path fill-rule="evenodd" clip-rule="evenodd" d="M577.946 0C586.674 14.585 596.758 34.0014 600.08 50.5C607.985 89.7525 600.961 115.031 585.58 152C573.897 180.081 560.773 194.824 542.539 215.307C539.531 218.686 536.383 222.222 533.08 226C512.172 249.912 490.617 263.148 469.107 276.357C447.312 289.741 425.563 303.096 404.58 327.5C376.816 359.791 363.915 387.755 349.486 419.031C341.669 435.977 333.402 453.895 322.08 474C332.716 452.316 340.351 433.147 347.571 415.018C360.897 381.558 372.812 351.642 399.58 316C418.438 290.892 439.156 276.194 459.611 261.683C481.818 245.929 503.714 230.396 522.58 202C537.517 179.518 555.08 141 555.08 141C555.08 141 569.48 96.3898 563.58 68.5C556.853 36.6956 541.69 18.8955 517.747 0H577.946Z" fill="#6D988E"/>
<path fill-rule="evenodd" clip-rule="evenodd" d="M577.946 0C586.674 14.585 596.758 34.0014 600.08 50.5C607.985 89.7525 600.961 115.031 585.58 152C573.897 180.081 560.773 194.824 542.539 215.307C539.531 218.686 536.383 222.222 533.08 226C512.172 249.912 490.617 263.148 469.107 276.357C447.312 289.741 425.563 303.096 404.58 327.5C376.816 359.791 363.915 387.755 349.486 419.031C341.669 435.977 333.402 453.895 322.08 474C332.716 452.316 340.351 433.147 347.571 415.018C360.897 381.558 372.812 351.642 399.58 316C418.438 290.892 439.156 276.194 459.611 261.683C481.818 245.929 503.714 230.396 522.58 202C537.517 179.518 555.08 141 555.08 141C555.08 141 569.48 96.3898 563.58 68.5C556.853 36.6956 541.69 18.8955 517.747 0H577.946Z" fill="#FFE5B4"/>
<path fill-rule="evenodd" clip-rule="evenodd" d="M577.946 0C586.674 14.585 596.758 34.0014 600.08 50.5C607.985 89.7525 600.961 115.031 585.58 152C573.897 180.081 560.773 194.824 542.539 215.307C539.531 218.686 536.383 222.222 533.08 226C512.172 249.912 490.617 263.148 469.107 276.357C447.312 289.741 425.563 303.096 404.58 327.5C376.816 359.791 363.915 387.755 349.486 419.031C341.669 435.977 333.402 453.895 322.08 474C332.716 452.316 340.351 433.147 347.571 415.018C360.897 381.558 372.812 351.642 399.58 316C418.438 290.892 439.156 276.194 459.611 261.683C481.818 245.929 503.714 230.396 522.58 202C537.517 179.518 555.08 141 555.08 141C555.08 141 569.48 96.3898 563.58 68.5C556.853 36.6956 541.69 18.8955 517.747 0H577.946Z" fill="#FFE5B4"/>
<path fill-rule="evenodd" clip-rule="evenodd" d="M577.946 0C586.674 14.585 596.758 34.0014 600.08 50.5C607.985 89.7525 600.961 115.031 585.58 152C573.897 180.081 560.773 194.824 542.539 215.307C539.531 218.686 536.383 222.222 533.08 226C512.172 249.912 490.617 263.148 469.107 276.357C447.312 289.741 425.563 303.096 404.58 327.5C376.816 359.791 363.915 387.755 349.486 419.031C341.669 435.977 333.402 453.895 322.08 474C332.716 452.316 340.351 433.147 347.571 415.018C360.897 381.558 372.812 351.642 399.58 316C418.438 290.892 439.156 276.194 459.611 261.683C481.818 245.929 503.714 230.396 522.58 202C537.517 179.518 555.08 141 555.08 141C555.08 141 569.48 96.3898 563.58 68.5C556.853 36.6956 541.69 18.8955 517.747 0H577.946Z" fill="#203139"/>
<path fill-rule="evenodd" clip-rule="evenodd" d="M577.946 0C586.674 14.585 596.758 34.0014 600.08 50.5C607.985 89.7525 600.961 115.031 585.58 152C573.897 180.081 560.773 194.824 542.539 215.307C539.531 218.686 536.383 222.222 533.08 226C512.172 249.912 490.617 263.148 469.107 276.357C447.312 289.741 425.563 303.096 404.58 327.5C376.816 359.791 363.915 387.755 349.486 419.031C341.669 435.977 333.402 453.895 322.08 474C332.716 452.316 340.351 433.147 347.571 415.018C360.897 381.558 372.812 351.642 399.58 316C418.438 290.892 439.156 276.194 459.611 261.683C481.818 245.929 503.714 230.396 522.58 202C537.517 179.518 555.08 141 555.08 141C555.08 141 569.48 96.3898 563.58 68.5C556.853 36.6956 541.69 18.8955 517.747 0H577.946Z" fill="#FFE5B4"/>
<path fill-rule="evenodd" clip-rule="evenodd" d="M577.946 0C586.674 14.585 596.758 34.0014 600.08 50.5C607.985 89.7525 600.961 115.031 585.58 152C573.897 180.081 560.773 194.824 542.539 215.307C539.531 218.686 536.383 222.222 533.08 226C512.172 249.912 490.617 263.148 469.107 276.357C447.312 289.741 425.563 303.096 404.58 327.5C376.816 359.791 363.915 387.755 349.486 419.031C341.669 435.977 333.402 453.895 322.08 474C332.716 452.316 340.351 433.147 347.571 415.018C360.897 381.558 372.812 351.642 399.58 316C418.438 290.892 439.156 276.194 459.611 261.683C481.818 245.929 503.714 230.396 522.58 202C537.517 179.518 555.08 141 555.08 141C555.08 141 569.48 96.3898 563.58 68.5C556.853 36.6956 541.69 18.8955 517.747 0H577.946Z" fill="url(#paint11_linear_187_142)"/>
<path fill-rule="evenodd" clip-rule="evenodd" d="M478.58 848C469.035 884.36 488.08 920.5 488.08 920.5L357.08 925C357.08 925 407.625 881.298 415.58 848C424.292 811.536 426.189 787.958 415.58 752C410.54 734.915 402.841 724.015 394.618 712.373C388.955 704.354 383.043 695.984 377.58 685L376.356 682.539C357.789 645.215 346.774 623.072 336.08 582C325.364 540.843 322.212 516.529 322.08 474C333.402 453.895 341.669 435.977 349.486 419.031C363.915 387.755 376.816 359.791 404.58 327.5C425.563 303.096 447.312 289.741 469.107 276.357C490.617 263.148 512.172 249.912 533.08 226C536.383 222.222 539.531 218.686 542.539 215.307C560.773 194.824 573.897 180.081 585.58 152C600.961 115.031 607.985 89.7525 600.08 50.5C596.758 34.0014 586.674 14.585 577.946 0H649.142C661.057 22.313 669.58 42 669.58 42C669.58 42 671.691 93.3131 662.08 124C653.58 151.141 642.983 165.821 627.701 186.99C625.74 189.706 623.701 192.53 621.58 195.5C598.105 228.378 579.109 245.123 551.539 269.426C547.728 272.786 543.753 276.289 539.58 280C521.054 296.474 501.043 303.794 481.137 311.076C460.405 318.66 439.787 326.202 421.08 344C375.347 387.513 346.54 422.746 336.08 485C329.752 522.666 336.656 545.715 348.58 582C356.571 606.316 364.072 619.235 376.677 640.944L377.58 642.5C387.768 660.051 395.777 670.809 406.069 684.634L406.07 684.635C409.018 688.594 412.153 692.806 415.58 697.5C424.426 709.616 434.072 718.487 443.224 726.905C458.24 740.715 471.929 753.304 478.58 777C486.074 803.695 485.621 821.182 478.58 848Z" fill="#78A898"/>
<path fill-rule="evenodd" clip-rule="evenodd" d="M478.58 848C469.035 884.36 488.08 920.5 488.08 920.5L357.08 925C357.08 925 407.625 881.298 415.58 848C424.292 811.536 426.189 787.958 415.58 752C410.54 734.915 402.841 724.015 394.618 712.373C388.955 704.354 383.043 695.984 377.58 685L376.356 682.539C357.789 645.215 346.774 623.072 336.08 582C325.364 540.843 322.212 516.529 322.08 474C333.402 453.895 341.669 435.977 349.486 419.031C363.915 387.755 376.816 359.791 404.58 327.5C425.563 303.096 447.312 289.741 469.107 276.357C490.617 263.148 512.172 249.912 533.08 226C536.383 222.222 539.531 218.686 542.539 215.307C560.773 194.824 573.897 180.081 585.58 152C600.961 115.031 607.985 89.7525 600.08 50.5C596.758 34.0014 586.674 14.585 577.946 0H649.142C661.057 22.313 669.58 42 669.58 42C669.58 42 671.691 93.3131 662.08 124C653.58 151.141 642.983 165.821 627.701 186.99C625.74 189.706 623.701 192.53 621.58 195.5C598.105 228.378 579.109 245.123 551.539 269.426C547.728 272.786 543.753 276.289 539.58 280C521.054 296.474 501.043 303.794 481.137 311.076C460.405 318.66 439.787 326.202 421.08 344C375.347 387.513 346.54 422.746 336.08 485C329.752 522.666 336.656 545.715 348.58 582C356.571 606.316 364.072 619.235 376.677 640.944L377.58 642.5C387.768 660.051 395.777 670.809 406.069 684.634L406.07 684.635C409.018 688.594 412.153 692.806 415.58 697.5C424.426 709.616 434.072 718.487 443.224 726.905C458.24 740.715 471.929 753.304 478.58 777C486.074 803.695 485.621 821.182 478.58 848Z" fill="#3B8381"/>
<path fill-rule="evenodd" clip-rule="evenodd" d="M478.58 848C469.035 884.36 488.08 920.5 488.08 920.5L357.08 925C357.08 925 407.625 881.298 415.58 848C424.292 811.536 426.189 787.958 415.58 752C410.54 734.915 402.841 724.015 394.618 712.373C388.955 704.354 383.043 695.984 377.58 685L376.356 682.539C357.789 645.215 346.774 623.072 336.08 582C325.364 540.843 322.212 516.529 322.08 474C333.402 453.895 341.669 435.977 349.486 419.031C363.915 387.755 376.816 359.791 404.58 327.5C425.563 303.096 447.312 289.741 469.107 276.357C490.617 263.148 512.172 249.912 533.08 226C536.383 222.222 539.531 218.686 542.539 215.307C560.773 194.824 573.897 180.081 585.58 152C600.961 115.031 607.985 89.7525 600.08 50.5C596.758 34.0014 586.674 14.585 577.946 0H649.142C661.057 22.313 669.58 42 669.58 42C669.58 42 671.691 93.3131 662.08 124C653.58 151.141 642.983 165.821 627.701 186.99C625.74 189.706 623.701 192.53 621.58 195.5C598.105 228.378 579.109 245.123 551.539 269.426C547.728 272.786 543.753 276.289 539.58 280C521.054 296.474 501.043 303.794 481.137 311.076C460.405 318.66 439.787 326.202 421.08 344C375.347 387.513 346.54 422.746 336.08 485C329.752 522.666 336.656 545.715 348.58 582C356.571 606.316 364.072 619.235 376.677 640.944L377.58 642.5C387.768 660.051 395.777 670.809 406.069 684.634L406.07 684.635C409.018 688.594 412.153 692.806 415.58 697.5C424.426 709.616 434.072 718.487 443.224 726.905C458.24 740.715 471.929 753.304 478.58 777C486.074 803.695 485.621 821.182 478.58 848Z" fill="#235760"/>
<path fill-rule="evenodd" clip-rule="evenodd" d="M478.58 848C469.035 884.36 488.08 920.5 488.08 920.5L357.08 925C357.08 925 407.625 881.298 415.58 848C424.292 811.536 426.189 787.958 415.58 752C410.54 734.915 402.841 724.015 394.618 712.373C388.955 704.354 383.043 695.984 377.58 685L376.356 682.539C357.789 645.215 346.774 623.072 336.08 582C325.364 540.843 322.212 516.529 322.08 474C333.402 453.895 341.669 435.977 349.486 419.031C363.915 387.755 376.816 359.791 404.58 327.5C425.563 303.096 447.312 289.741 469.107 276.357C490.617 263.148 512.172 249.912 533.08 226C536.383 222.222 539.531 218.686 542.539 215.307C560.773 194.824 573.897 180.081 585.58 152C600.961 115.031 607.985 89.7525 600.08 50.5C596.758 34.0014 586.674 14.585 577.946 0H649.142C661.057 22.313 669.58 42 669.58 42C669.58 42 671.691 93.3131 662.08 124C653.58 151.141 642.983 165.821 627.701 186.99C625.74 189.706 623.701 192.53 621.58 195.5C598.105 228.378 579.109 245.123 551.539 269.426C547.728 272.786 543.753 276.289 539.58 280C521.054 296.474 501.043 303.794 481.137 311.076C460.405 318.66 439.787 326.202 421.08 344C375.347 387.513 346.54 422.746 336.08 485C329.752 522.666 336.656 545.715 348.58 582C356.571 606.316 364.072 619.235 376.677 640.944L377.58 642.5C387.768 660.051 395.777 670.809 406.069 684.634L406.07 684.635C409.018 688.594 412.153 692.806 415.58 697.5C424.426 709.616 434.072 718.487 443.224 726.905C458.24 740.715 471.929 753.304 478.58 777C486.074 803.695 485.621 821.182 478.58 848Z" fill="#6D988E"/>
<path fill-rule="evenodd" clip-rule="evenodd" d="M478.58 848C469.035 884.36 488.08 920.5 488.08 920.5L357.08 925C357.08 925 407.625 881.298 415.58 848C424.292 811.536 426.189 787.958 415.58 752C410.54 734.915 402.841 724.015 394.618 712.373C388.955 704.354 383.043 695.984 377.58 685L376.356 682.539C357.789 645.215 346.774 623.072 336.08 582C325.364 540.843 322.212 516.529 322.08 474C333.402 453.895 341.669 435.977 349.486 419.031C363.915 387.755 376.816 359.791 404.58 327.5C425.563 303.096 447.312 289.741 469.107 276.357C490.617 263.148 512.172 249.912 533.08 226C536.383 222.222 539.531 218.686 542.539 215.307C560.773 194.824 573.897 180.081 585.58 152C600.961 115.031 607.985 89.7525 600.08 50.5C596.758 34.0014 586.674 14.585 577.946 0H649.142C661.057 22.313 669.58 42 669.58 42C669.58 42 671.691 93.3131 662.08 124C653.58 151.141 642.983 165.821 627.701 186.99C625.74 189.706 623.701 192.53 621.58 195.5C598.105 228.378 579.109 245.123 551.539 269.426C547.728 272.786 543.753 276.289 539.58 280C521.054 296.474 501.043 303.794 481.137 311.076C460.405 318.66 439.787 326.202 421.08 344C375.347 387.513 346.54 422.746 336.08 485C329.752 522.666 336.656 545.715 348.58 582C356.571 606.316 364.072 619.235 376.677 640.944L377.58 642.5C387.768 660.051 395.777 670.809 406.069 684.634L406.07 684.635C409.018 688.594 412.153 692.806 415.58 697.5C424.426 709.616 434.072 718.487 443.224 726.905C458.24 740.715 471.929 753.304 478.58 777C486.074 803.695 485.621 821.182 478.58 848Z" fill="#FFE5B4"/>
<path fill-rule="evenodd" clip-rule="evenodd" d="M478.58 848C469.035 884.36 488.08 920.5 488.08 920.5L357.08 925C357.08 925 407.625 881.298 415.58 848C424.292 811.536 426.189 787.958 415.58 752C410.54 734.915 402.841 724.015 394.618 712.373C388.955 704.354 383.043 695.984 377.58 685L376.356 682.539C357.789 645.215 346.774 623.072 336.08 582C325.364 540.843 322.212 516.529 322.08 474C333.402 453.895 341.669 435.977 349.486 419.031C363.915 387.755 376.816 359.791 404.58 327.5C425.563 303.096 447.312 289.741 469.107 276.357C490.617 263.148 512.172 249.912 533.08 226C536.383 222.222 539.531 218.686 542.539 215.307C560.773 194.824 573.897 180.081 585.58 152C600.961 115.031 607.985 89.7525 600.08 50.5C596.758 34.0014 586.674 14.585 577.946 0H649.142C661.057 22.313 669.58 42 669.58 42C669.58 42 671.691 93.3131 662.08 124C653.58 151.141 642.983 165.821 627.701 186.99C625.74 189.706 623.701 192.53 621.58 195.5C598.105 228.378 579.109 245.123 551.539 269.426C547.728 272.786 543.753 276.289 539.58 280C521.054 296.474 501.043 303.794 481.137 311.076C460.405 318.66 439.787 326.202 421.08 344C375.347 387.513 346.54 422.746 336.08 485C329.752 522.666 336.656 545.715 348.58 582C356.571 606.316 364.072 619.235 376.677 640.944L377.58 642.5C387.768 660.051 395.777 670.809 406.069 684.634L406.07 684.635C409.018 688.594 412.153 692.806 415.58 697.5C424.426 709.616 434.072 718.487 443.224 726.905C458.24 740.715 471.929 753.304 478.58 777C486.074 803.695 485.621 821.182 478.58 848Z" fill="#FFE5B4"/>
<path fill-rule="evenodd" clip-rule="evenodd" d="M478.58 848C469.035 884.36 488.08 920.5 488.08 920.5L357.08 925C357.08 925 407.625 881.298 415.58 848C424.292 811.536 426.189 787.958 415.58 752C410.54 734.915 402.841 724.015 394.618 712.373C388.955 704.354 383.043 695.984 377.58 685L376.356 682.539C357.789 645.215 346.774 623.072 336.08 582C325.364 540.843 322.212 516.529 322.08 474C333.402 453.895 341.669 435.977 349.486 419.031C363.915 387.755 376.816 359.791 404.58 327.5C425.563 303.096 447.312 289.741 469.107 276.357C490.617 263.148 512.172 249.912 533.08 226C536.383 222.222 539.531 218.686 542.539 215.307C560.773 194.824 573.897 180.081 585.58 152C600.961 115.031 607.985 89.7525 600.08 50.5C596.758 34.0014 586.674 14.585 577.946 0H649.142C661.057 22.313 669.58 42 669.58 42C669.58 42 671.691 93.3131 662.08 124C653.58 151.141 642.983 165.821 627.701 186.99C625.74 189.706 623.701 192.53 621.58 195.5C598.105 228.378 579.109 245.123 551.539 269.426C547.728 272.786 543.753 276.289 539.58 280C521.054 296.474 501.043 303.794 481.137 311.076C460.405 318.66 439.787 326.202 421.08 344C375.347 387.513 346.54 422.746 336.08 485C329.752 522.666 336.656 545.715 348.58 582C356.571 606.316 364.072 619.235 376.677 640.944L377.58 642.5C387.768 660.051 395.777 670.809 406.069 684.634L406.07 684.635C409.018 688.594 412.153 692.806 415.58 697.5C424.426 709.616 434.072 718.487 443.224 726.905C458.24 740.715 471.929 753.304 478.58 777C486.074 803.695 485.621 821.182 478.58 848Z" fill="#203139"/>
<path fill-rule="evenodd" clip-rule="evenodd" d="M478.58 848C469.035 884.36 488.08 920.5 488.08 920.5L357.08 925C357.08 925 407.625 881.298 415.58 848C424.292 811.536 426.189 787.958 415.58 752C410.54 734.915 402.841 724.015 394.618 712.373C388.955 704.354 383.043 695.984 377.58 685L376.356 682.539C357.789 645.215 346.774 623.072 336.08 582C325.364 540.843 322.212 516.529 322.08 474C333.402 453.895 341.669 435.977 349.486 419.031C363.915 387.755 376.816 359.791 404.58 327.5C425.563 303.096 447.312 289.741 469.107 276.357C490.617 263.148 512.172 249.912 533.08 226C536.383 222.222 539.531 218.686 542.539 215.307C560.773 194.824 573.897 180.081 585.58 152C600.961 115.031 607.985 89.7525 600.08 50.5C596.758 34.0014 586.674 14.585 577.946 0H649.142C661.057 22.313 669.58 42 669.58 42C669.58 42 671.691 93.3131 662.08 124C653.58 151.141 642.983 165.821 627.701 186.99C625.74 189.706 623.701 192.53 621.58 195.5C598.105 228.378 579.109 245.123 551.539 269.426C547.728 272.786 543.753 276.289 539.58 280C521.054 296.474 501.043 303.794 481.137 311.076C460.405 318.66 439.787 326.202 421.08 344C375.347 387.513 346.54 422.746 336.08 485C329.752 522.666 336.656 545.715 348.58 582C356.571 606.316 364.072 619.235 376.677 640.944L377.58 642.5C387.768 660.051 395.777 670.809 406.069 684.634L406.07 684.635C409.018 688.594 412.153 692.806 415.58 697.5C424.426 709.616 434.072 718.487 443.224 726.905C458.24 740.715 471.929 753.304 478.58 777C486.074 803.695 485.621 821.182 478.58 848Z" fill="url(#paint12_linear_187_142)"/>
<path fill-rule="evenodd" clip-rule="evenodd" d="M703.165 0H649.142C661.057 22.313 669.58 42 669.58 42C669.58 42 671.691 93.3131 662.08 124C653.58 151.141 642.983 165.821 627.701 186.99C625.74 189.706 623.701 192.53 621.58 195.5C598.105 228.378 579.109 245.123 551.539 269.426C547.728 272.786 543.753 276.289 539.58 280C521.054 296.474 501.043 303.794 481.137 311.076C460.405 318.66 439.787 326.202 421.08 344C375.347 387.513 346.54 422.746 336.08 485C329.752 522.666 336.656 545.715 348.58 582C356.571 606.316 364.072 619.235 376.677 640.944L377.58 642.5C387.768 660.051 395.777 670.809 406.069 684.634L406.07 684.635C409.018 688.594 412.153 692.806 415.58 697.5C424.426 709.616 434.072 718.487 443.224 726.905C458.24 740.715 471.929 753.304 478.58 777C486.074 803.695 485.621 821.182 478.58 848C469.035 884.36 488.08 920.5 488.08 920.5L572.58 915.5C572.58 915.5 548.066 887.621 555.08 855C561.405 825.589 555.529 806.959 546.6 778.648L546.08 777C535.561 743.625 523.266 727.863 501.426 699.866C500.818 699.087 500.203 698.299 499.58 697.5C477.565 669.263 470.295 657.075 456.58 624C446.312 599.236 439.069 577.141 436.08 550.5C431.736 511.766 433.979 492.55 446.08 455.5C455.907 425.414 470.03 403.717 485.956 379.251C490.377 372.46 494.936 365.456 499.58 358C510.647 340.235 531.678 323.954 551.764 308.405C564.284 298.713 576.437 289.306 585.58 280C629.511 235.29 681.639 178.732 696.08 152C719.58 108.5 721.206 62.6996 707.58 14C706.193 9.04181 704.72 4.38865 703.165 0Z" fill="url(#paint13_linear_187_142)"/>
<path d="M293.08 1375.5C284.877 1340.72 247.065 1303.72 217.58 1259C196.376 1243.32 200.58 1226.5 181.08 1193C155.189 1148.52 148.689 1138.1 142.58 1087C119.112 1087 123.548 1087 100.08 1087C109.08 1133.5 125.145 1166.65 142.58 1203C166.834 1253.56 217.58 1299.5 217.58 1299.5C217.58 1299.5 260.974 1361.67 255.08 1405C248.995 1449.74 218.939 1466.51 187.08 1498.5C139.132 1546.65 39.58 1634 8.08 1718C-2.41971 1781 -2.96352 1827.73 8.08 1873C23.0959 1895.63 61.1577 1967.53 70.5802 1993C83.4942 2027.91 90.8827 2049.32 89.0802 2086.5C87.5666 2117.72 69.0802 2164 69.0802 2164H99.0802C99.0802 2164 144.259 2106.63 142.58 2069C141.098 2035.78 149.914 2010.33 134.58 1978.5C119.247 1946.67 63.5804 1883.5 53.0802 1837C42.9188 1792 47.0802 1787.74 47.0802 1736C50.5804 1701.5 70.9137 1652.83 110.58 1627.5C150.247 1602.17 187.08 1599.5 217.58 1576C278.36 1529.17 281.58 1498.5 293.08 1467C304.58 1435.5 301.284 1410.28 293.08 1375.5Z" fill="url(#paint14_linear_187_142)"/>
<path d="M47.0802 2049.5C46.897 2094.55 33.0802 2164 33.0802 2164H69.0802C69.0802 2164 87.5666 2117.72 89.0802 2086.5C90.8827 2049.32 83.4942 2027.91 70.5802 1993C61.1577 1967.53 23.0959 1895.63 8.08 1873C19.1234 1918.27 47.2698 2002.9 47.0802 2049.5Z" fill="url(#paint15_linear_187_142)"/>
<path d="M70.5802 1514.5C33.0802 1576 8.07991 1661 8.08 1718C39.58 1634 139.132 1546.65 187.08 1498.5C218.939 1466.51 248.995 1449.74 255.08 1405C260.974 1361.67 217.58 1299.5 217.58 1299.5C217.58 1299.5 166.834 1253.56 142.58 1203C125.145 1166.65 109.08 1133.5 100.08 1087C79.5778 1087 47.5804 1087 47.5804 1087C47.5804 1087 49.6001 1132.22 81.0804 1171.5C114.737 1213.5 160.462 1271.53 164.08 1332C166.651 1374.96 161.136 1391.13 134.58 1425C107.872 1459.07 86.2525 1488.8 70.5802 1514.5Z" fill="url(#paint16_linear_187_142)"/>
<path d="M216.174 1171.5C217.58 1140.32 211.58 1103.5 211.58 1103.5C194.08 1094.5 171.32 1088.17 142.58 1087C148.689 1138.1 155.189 1148.52 181.08 1193C200.58 1226.5 196.376 1243.32 217.58 1259C211.58 1216.5 214.459 1209.53 216.174 1171.5Z" fill="#DFC89C"/>
<path d="M287.08 788.5C278.877 823.279 241.065 858.285 211.58 903C190.376 918.679 179.537 929.632 164.08 951C133.916 992.7 126.75 1038.03 142.58 1087C119.112 1087 123.548 1087 100.08 1087C98.1427 1046.73 104.895 1013.35 122.33 977C146.584 926.435 211.58 864.5 211.58 864.5C211.58 864.5 254.974 802.327 249.08 759C242.995 714.262 212.939 697.492 181.08 665.5C133.132 617.351 55.5804 599.5 24.0804 515.5C24.0804 382.331 24.6039 365.899 33.0802 233C48.0961 210.37 55.1577 196.471 64.5802 171C77.4943 136.09 84.8827 114.678 83.0802 77.5C81.5666 46.2795 63.0802 0 63.0802 0H93.0802C93.0802 0 125.259 53.8716 123.58 91.5C122.098 124.72 108.414 139.167 93.0802 171C77.7469 202.833 63.0805 244.5 52.5804 291C42.419 336 47.0802 371.756 47.0802 423.5C50.5804 458 64.9137 511.167 104.58 536.5C144.247 561.833 181.08 564.5 211.58 588C272.36 634.83 275.58 665.5 287.08 697C298.58 728.5 295.284 753.721 287.08 788.5Z" fill="url(#paint17_linear_187_142)"/>
<path d="M47.0802 114.5C46.897 69.4523 33.0802 0 33.0802 0H63.0802C63.0802 0 81.5666 46.2795 83.0802 77.5C84.8827 114.678 77.4943 136.09 64.5802 171C55.1577 196.471 48.0961 210.37 33.0802 233C44.1237 187.729 47.2698 161.099 47.0802 114.5Z" fill="url(#paint18_linear_187_142)"/>
<path d="M63.0804 665.5C39.3407 638.793 24.0803 572.5 24.0804 515.5C55.5804 599.5 133.132 617.351 181.08 665.5C212.939 697.492 242.995 714.262 249.08 759C254.974 802.327 211.58 864.5 211.58 864.5C211.58 864.5 146.584 926.435 122.33 977C104.895 1013.35 98.1427 1046.73 100.08 1087C79.5778 1087 47.5804 1087 47.5804 1087C47.5804 1087 41.1594 1035.82 63.0804 990.5C89.4582 935.968 160.462 892.469 164.08 832C166.651 789.037 161.136 772.871 134.58 739C107.872 704.935 83.0802 688 63.0804 665.5Z" fill="url(#paint19_linear_187_142)"/>
<path d="M200.58 1033C211.146 1076.83 211.58 1103.5 211.58 1103.5C194.08 1094.5 171.32 1088.17 142.58 1087C126.75 1038.03 133.916 992.7 164.08 951C179.537 929.632 190.376 918.679 211.58 903C203.965 940.295 187.08 977 200.58 1033Z" fill="#DFC89C"/>
<defs>
<linearGradient id="paint0_linear_187_142" x1="715.989" y1="728.346" x2="417.514" y2="601.51" gradientUnits="userSpaceOnUse">
<stop stop-color="#3B8381"/>
<stop offset="1" stop-color="#78A898"/>
</linearGradient>
<linearGradient id="paint1_linear_187_142" x1="471.571" y1="612.131" x2="85.2266" y2="593.994" gradientUnits="userSpaceOnUse">
<stop stop-color="#FFE9BE"/>
<stop offset="1" stop-color="#235760"/>
</linearGradient>
<linearGradient id="paint2_linear_187_142" x1="105.399" y1="577.466" x2="366.934" y2="459.395" gradientUnits="userSpaceOnUse">
<stop stop-color="#BAB694"/>
<stop offset="1" stop-color="#3B8381"/>
</linearGradient>
<linearGradient id="paint3_linear_187_142" x1="667.832" y1="1381.55" x2="521.338" y2="243.747" gradientUnits="userSpaceOnUse">
<stop stop-color="#235760"/>
<stop offset="1" stop-color="#6D988E"/>
</linearGradient>
<linearGradient id="paint4_linear_187_142" x1="145.378" y1="274.507" x2="620.527" y2="352.406" gradientUnits="userSpaceOnUse">
<stop stop-color="#78A898"/>
<stop offset="1" stop-color="#FFE5B3"/>
</linearGradient>
<linearGradient id="paint5_linear_187_142" x1="105.4" y1="2297" x2="278.985" y2="2140.41" gradientUnits="userSpaceOnUse">
<stop stop-color="#BAB694"/>
<stop offset="1" stop-color="#3B8381"/>
</linearGradient>
<linearGradient id="paint6_linear_187_142" x1="667.832" y1="1381.55" x2="521.338" y2="243.747" gradientUnits="userSpaceOnUse">
<stop stop-color="#235760"/>
<stop offset="1" stop-color="#6D988E"/>
</linearGradient>
<linearGradient id="paint7_linear_187_142" x1="715.989" y1="728.346" x2="417.514" y2="601.51" gradientUnits="userSpaceOnUse">
<stop stop-color="#3B8381"/>
<stop offset="1" stop-color="#78A898"/>
</linearGradient>
<linearGradient id="paint8_linear_187_142" x1="145.378" y1="274.507" x2="620.527" y2="352.406" gradientUnits="userSpaceOnUse">
<stop stop-color="#78A898"/>
<stop offset="1" stop-color="#FFE5B3"/>
</linearGradient>
<linearGradient id="paint9_linear_187_142" x1="471.571" y1="612.131" x2="85.2266" y2="593.994" gradientUnits="userSpaceOnUse">
<stop stop-color="#FFE9BE"/>
<stop offset="1" stop-color="#235760"/>
</linearGradient>
<linearGradient id="paint10_linear_187_142" x1="471.571" y1="612.131" x2="85.2266" y2="593.994" gradientUnits="userSpaceOnUse">
<stop stop-color="#FFE9BE"/>
<stop offset="1" stop-color="#235760"/>
</linearGradient>
<linearGradient id="paint11_linear_187_142" x1="145.378" y1="274.507" x2="620.527" y2="352.406" gradientUnits="userSpaceOnUse">
<stop stop-color="#78A898"/>
<stop offset="1" stop-color="#FFE5B3"/>
</linearGradient>
<linearGradient id="paint12_linear_187_142" x1="667.832" y1="1381.55" x2="521.338" y2="243.747" gradientUnits="userSpaceOnUse">
<stop stop-color="#235760"/>
<stop offset="1" stop-color="#6D988E"/>
</linearGradient>
<linearGradient id="paint13_linear_187_142" x1="715.989" y1="728.346" x2="417.514" y2="601.51" gradientUnits="userSpaceOnUse">
<stop stop-color="#3B8381"/>
<stop offset="1" stop-color="#78A898"/>
</linearGradient>
<linearGradient id="paint14_linear_187_142" x1="279.582" y1="738.5" x2="39.0817" y2="152.5" gradientUnits="userSpaceOnUse">
<stop stop-color="#E4DEAA"/>
<stop offset="1" stop-color="#3B8381"/>
</linearGradient>
<linearGradient id="paint15_linear_187_142" x1="279.582" y1="738.5" x2="39.0817" y2="152.5" gradientUnits="userSpaceOnUse">
<stop stop-color="#E4DEAA"/>
<stop offset="1" stop-color="#3B8381"/>
</linearGradient>
<linearGradient id="paint16_linear_187_142" x1="-289.984" y1="883.902" x2="707.731" y2="381.67" gradientUnits="userSpaceOnUse">
<stop stop-color="#3B8381"/>
<stop offset="1" stop-color="#6D988E"/>
</linearGradient>
<linearGradient id="paint17_linear_187_142" x1="279.582" y1="738.5" x2="39.0817" y2="152.5" gradientUnits="userSpaceOnUse">
<stop stop-color="#E4DEAA"/>
<stop offset="1" stop-color="#3B8381"/>
</linearGradient>
<linearGradient id="paint18_linear_187_142" x1="279.582" y1="738.5" x2="39.0817" y2="152.5" gradientUnits="userSpaceOnUse">
<stop stop-color="#E4DEAA"/>
<stop offset="1" stop-color="#3B8381"/>
</linearGradient>
<linearGradient id="paint19_linear_187_142" x1="-289.984" y1="883.902" x2="707.731" y2="381.67" gradientUnits="userSpaceOnUse">
<stop stop-color="#3B8381"/>
<stop offset="1" stop-color="#6D988E"/>
</linearGradient>
</defs>
</svg>
